<?xml version="1.0" encoding="UTF-8"?>
<svg width="384px" height="334px" viewBox="0 0 384 334" version="1.1" xmlns="http://www.w3.org/2000/svg" xmlns:xlink="http://www.w3.org/1999/xlink">
    <title>solid</title>
    <g id="pre" stroke="none" stroke-width="1" fill="none" fill-rule="evenodd">
        <g id="Artboard" transform="translate(0, -55)">
            <g id="solid" transform="translate(0.0391, 55.6664)">
                <path d="M63.8929244,166.323 L128.206924,277.248 L193.222924,277.248 L161.306924,332.529 L95.9609244,332.675544 L0.00392443361,166.323 L63.8929244,166.323 Z M256.681924,278.185 L287.960924,332.246 L225.388924,332.386 L256.681924,278.185 Z M191.960924,166.323772 L223.862924,221.462211 L159.404791,221.462211 L127.466079,166.323772 L191.960924,166.323772 Z" id="Shape" fill="#265073"></path>
                <path d="M287.975924,0.001 L383.721924,165.835 L327.456924,263.86 L287.936924,332.673 L256.588924,278.347 L321.525876,165.876356 L256.119924,55.675 L255.835924,55.675 L287.975924,0.001 Z M225.871168,110.333 L258.223964,166.323772 L225.871168,221.462211 L223.770924,221.462211 L191.960924,166.323772 L224.282924,110.333 L225.871168,110.333 Z" id="Shape" fill="#9AD0C2"></path>
                <path d="M127.466079,277.248878 L193.161,277.354 L161.222924,332.675544 L127.466079,277.248878 Z M256.617,278.297 L287.958,332.673 L225.223924,332.673561 L256.617,278.297 Z M224.288,110.333 L191.960924,166.323772 L127.469,166.318 L159.404791,110.333561 L224.288,110.333 Z M104.164,0.009 L159.309924,0.248 L63.6596685,165.919416 L63.887,166.313 L0,166.308449 L60.432,61.509 L95.939,0.009 L104.164,0.009 Z M287.984,0.014 L255.846,55.675 L191.309924,55.675 L223.310924,0.248 L281.541,0 L287.976,0 L287.984,0.014 Z" id="Shape" fill="#2D9596"></path>
            </g>
        </g>
    </g>
</svg>