<?xml version="1.0" encoding="UTF-8"?>
<svg width="1288px" height="349px" viewBox="0 0 1288 349" version="1.1" xmlns="http://www.w3.org/2000/svg" xmlns:xlink="http://www.w3.org/1999/xlink">
    <title>banner-light</title>
    <g id="banner-light" stroke="none" stroke-width="1" fill="none" fill-rule="evenodd">
        <g id="logo-light" transform="translate(8, 8)" stroke="#000000" stroke-width="4">
            <path d="M777.258423,38.36 C797.416817,38.36 815.666817,46.5308033 828.877218,59.741205 C842.08762,72.9516066 850.258423,91.2016066 850.258423,111.36 C850.258423,131.518393 842.08762,149.768393 828.877218,162.978795 C815.666817,176.189197 797.416817,184.36 777.258423,184.36 L737.337555,184.36 L852.940187,302.241597 L813.841663,302.362601 L697.338939,183.562732 C694.24539,180.408189 692.723338,176.298379 692.763309,172.203817 C692.80328,168.109255 694.405273,164.029942 697.559815,160.936393 C700.550921,158.00312 704.573178,156.36 708.762547,156.36 L777.258423,156.36 C789.68483,156.36 800.93483,151.323203 809.078228,143.179805 C817.221627,135.036407 822.258423,123.786407 822.258423,111.36 C822.258423,98.9335931 817.221627,87.6835931 809.078228,79.5401948 C800.93483,71.3967966 789.68483,66.36 777.258423,66.36 L686,66.36 L686,302.36 L658,302.36 L658,38.36 Z M565,38.36 C585.158393,38.36 603.408393,46.5308033 616.618795,59.741205 C629.829197,72.9516066 638,91.2016066 638,111.36 C638,131.518393 629.829197,149.768393 616.618795,162.978795 C603.408393,176.189197 585.158393,184.36 565,184.36 L506,184.36 L506,156.36 L565,156.36 C577.426407,156.36 588.676407,151.323203 596.819805,143.179805 C604.963203,135.036407 610,123.786407 610,111.36 C610,98.9335931 604.963203,87.6835931 596.819805,79.5401948 C588.676407,71.3967966 577.426407,66.36 565,66.36 L474,66.36 L474,302.36 L446,302.36 L446,38.36 Z M1062,38.36 L1062,66.36 L898,66.36 L898,156.36 L1046,156.36 L1046,184.36 L898,184.36 L898,274.36 L1062,274.36 L1062,302.36 L870,302.36 L870,38.36 L1062,38.36 Z M1274,38.36 L1274,66.36 L1110,66.36 L1110,156.36 L1258,156.36 L1258,184.36 L1110,184.36 L1110,274.36 L1274,274.36 L1274,302.36 L1082,302.36 L1082,38.36 L1274,38.36 Z" id="Combined-Shape" fill-rule="nonzero"></path>
            <g id="solid">
                <path d="M63.8929244,166.323 L128.206924,277.248 L193.222924,277.248 L161.306924,332.529 L95.9609244,332.675544 L0.00392443361,166.323 L63.8929244,166.323 Z M256.681924,278.185 L287.960924,332.246 L225.388924,332.386 L256.681924,278.185 Z M191.960924,166.323772 L223.862924,221.462211 L159.404791,221.462211 L127.466079,166.323772 L191.960924,166.323772 Z" id="Shape"></path>
                <path d="M287.975924,0.001 L383.721924,165.835 L327.456924,263.86 L287.936924,332.673 L256.588924,278.347 L321.525876,165.876356 L256.119924,55.675 L255.835924,55.675 L287.975924,0.001 Z M225.871168,110.333 L258.223964,166.323772 L225.871168,221.462211 L223.770924,221.462211 L191.960924,166.323772 L224.282924,110.333 L225.871168,110.333 Z" id="Shape"></path>
                <path d="M127.466079,277.248878 L193.161,277.354 L161.222924,332.675544 L127.466079,277.248878 Z M256.617,278.297 L287.958,332.673 L225.223924,332.673561 L256.617,278.297 Z M224.288,110.333 L191.960924,166.323772 L127.469,166.318 L159.404791,110.333561 L224.288,110.333 Z M104.164,0.009 L159.309924,0.248 L63.6596685,165.919416 L63.887,166.313 L0,166.308449 L60.432,61.509 L95.939,0.009 L104.164,0.009 Z M287.984,0.014 L255.846,55.675 L191.309924,55.675 L223.310924,0.248 L281.541,0 L287.976,0 L287.984,0.014 Z" id="Shape"></path>
            </g>
        </g>
    </g>
</svg>