<?xml version="1.0" encoding="UTF-8"?>
<svg width="262px" height="392px" viewBox="0 0 262 392" version="1.1" xmlns="http://www.w3.org/2000/svg" xmlns:xlink="http://www.w3.org/1999/xlink">
    <title>watermark-dark</title>
    <g id="watermark-dark" stroke="none" stroke-width="1" fill="none" fill-rule="evenodd" stroke-linejoin="round">
        <g id="Group" transform="translate(2, 2)" stroke="#265073" stroke-width="4">
            <path d="M257.866208,165.628356 L257.866208,221.628356 L161.564256,388.427544 L97.563256,388.427544 L97.563256,333 L64.547256,333 L0,221.671416 L0,166.213772 L0.188,165.996 L64.547256,277 L95.6200002,276.999 L95.745123,277.214211 L129.439,277.214 L97.563256,332.427544 L161.564256,332.427544 L257.866208,165.628356 Z M162.2115,110.085 L194.564296,166.075772 L178.261,193.861 L162.2115,166.085561 L95.745123,166.085561 L79.9010001,193.861 L63.8064109,166.075772 L95.745123,110.085 L162.2115,110.085 Z M159.651256,55.426 L127.650256,55.427 L159.651256,4.54747351e-13 L159.651256,55.426 Z" id="Shape" fill="#061E31"></path>
            <path d="M159.651256,0 L127.650256,55.427 L192.460256,55.427 L257.866208,165.628356 L161.564256,332.427544 L97.563256,332.427544 L129.563256,277 L64.547256,277 L0,165.671416 L95.650256,0 L159.651256,0 Z M162.2115,110.085561 L95.745123,110.085561 L63.8064109,166.075772 L95.745123,221.214211 L162.2115,221.214211 L194.564296,166.075772 L162.2115,110.085561 Z" id="Shape"></path>
        </g>
    </g>
</svg>