<?xml version="1.0" encoding="UTF-8"?>
<svg width="1200px" height="720px" viewBox="0 0 1200 720" version="1.1" xmlns="http://www.w3.org/2000/svg" xmlns:xlink="http://www.w3.org/1999/xlink">
    <title>watermark-light</title>
    <g id="watermark-light" stroke="none" stroke-width="1" fill="none" fill-rule="evenodd" stroke-linejoin="round">
        <g id="Group" transform="translate(472, 166)" stroke="#9AD0C2" stroke-width="4">
            <path d="M257.866208,165.628356 L257.866208,221.628356 L161.564256,388.427544 L97.5632559,388.427544 L97.5632559,333 L64.5472559,333 L0,221.671416 L0,166.213772 L0.188,165.996 L64.5472559,277 L95.62,276.999 L95.7451228,277.214211 L129.439,277.214 L97.5632559,332.427544 L161.564256,332.427544 L257.866208,165.628356 Z M162.211499,110.085 L194.564296,166.075772 L178.261,193.861 L162.211499,166.085561 L95.7451228,166.085561 L79.901,193.861 L63.8064108,166.075772 L95.7451228,110.085 L162.211499,110.085 Z M159.651256,55.426 L127.650256,55.427 L159.651256,4.54747351e-13 L159.651256,55.426 Z" id="Shape" fill="#ECF4D6"></path>
            <path d="M159.651256,0 L127.650256,55.427 L192.460256,55.427 L257.866208,165.628356 L161.564256,332.427544 L97.5632559,332.427544 L129.563256,277 L64.5472559,277 L0,165.671416 L95.6502559,0 L159.651256,0 Z M162.211499,110.085561 L95.7451228,110.085561 L63.8064108,166.075772 L95.7451228,221.214211 L162.211499,221.214211 L194.564296,166.075772 L162.211499,110.085561 Z" id="Shape"></path>
        </g>
    </g>
</svg>