<?xml version="1.0" encoding="UTF-8"?>
<svg width="1272px" height="334px" viewBox="0 0 1272 334" version="1.1" xmlns="http://www.w3.org/2000/svg" xmlns:xlink="http://www.w3.org/1999/xlink">
    <title>logo-dark</title>
    <defs>
        <linearGradient x1="50%" y1="0%" x2="50%" y2="100%" id="linearGradient-1">
            <stop stop-color="#ECF4D6" offset="0%"></stop>
            <stop stop-color="#929782" offset="100%"></stop>
        </linearGradient>
    </defs>
    <g id="pre" stroke="none" stroke-width="1" fill="none" fill-rule="evenodd">
        <g id="pre-logo-dark" transform="translate(-105, -133)">
            <g id="logo-dark" transform="translate(105, 133.64)">
                <path d="M464,300.36 L448,300.36 L448,48.36 L448,40.36 L559,40.36 C597.107648,40.36 628,71.2523523 628,109.36 C628,147.467648 597.107648,178.36 559,178.36 L504,178.36 L504,162.36 L559,162.36 C588.271092,162.36 612,138.631092 612,109.36 C612,80.0889083 588.271092,56.36 559,56.36 L464,56.36 L464,300.36 Z M771.258423,40.36 C809.366071,40.36 840.258423,71.2523523 840.258423,109.36 C840.258423,147.467648 809.366071,178.36 771.258423,178.36 L719.051,178.36 L838.692,300.36 L816.282,300.36 L697.622792,179.361707 C693.755856,175.41853 693.817662,169.087182 697.760839,165.220245 C699.630281,163.38695 702.144191,162.36 704.762547,162.36 L771.258423,162.36 C800.529515,162.36 824.258423,138.631092 824.258423,109.36 C824.258423,80.0889083 800.529515,56.36 771.258423,56.36 L676,56.36 L676,300.36 L660,300.36 L660,40.36 L771.258423,40.36 Z M1056,40.36 L1056,56.36 L888,56.36 L888,162.36 L1040,162.36 L1040,178.36 L888,178.36 L888,284.36 L1056,284.36 L1056,300.36 L872,300.36 L872,40.36 L1056,40.36 Z M1272,41.36 L1272,57.36 L1104,57.36 L1104,163.36 L1256,163.36 L1256,179.36 L1104,179.36 L1104,285.36 L1272,285.36 L1272,301.36 L1088,301.36 L1088,41.36 L1272,41.36 Z" id="Combined-Shape" fill="url(#linearGradient-1)" fill-rule="nonzero"></path>
                <g id="solid">
                    <path d="M63.8929244,166.323 L128.206924,277.248 L193.222924,277.248 L161.306924,332.529 L95.9609244,332.675544 L0.00392443361,166.323 L63.8929244,166.323 Z M256.681924,278.185 L287.960924,332.246 L225.388924,332.386 L256.681924,278.185 Z M191.960924,166.323772 L223.862924,221.462211 L159.404791,221.462211 L127.466079,166.323772 L191.960924,166.323772 Z" id="Shape" fill="#265073"></path>
                    <path d="M287.975924,0.001 L383.721924,165.835 L327.456924,263.86 L287.936924,332.673 L256.588924,278.347 L321.525876,165.876356 L256.119924,55.675 L255.835924,55.675 L287.975924,0.001 Z M225.871168,110.333 L258.223964,166.323772 L225.871168,221.462211 L223.770924,221.462211 L191.960924,166.323772 L224.282924,110.333 L225.871168,110.333 Z" id="Shape" fill="#9AD0C2"></path>
                    <path d="M127.466079,277.248878 L193.161,277.354 L161.222924,332.675544 L127.466079,277.248878 Z M256.617,278.297 L287.958,332.673 L225.223924,332.673561 L256.617,278.297 Z M224.288,110.333 L191.960924,166.323772 L127.469,166.318 L159.404791,110.333561 L224.288,110.333 Z M104.164,0.009 L159.309924,0.248 L63.6596685,165.919416 L63.887,166.313 L0,166.308449 L60.432,61.509 L95.939,0.009 L104.164,0.009 Z M287.984,0.014 L255.846,55.675 L191.309924,55.675 L223.310924,0.248 L281.541,0 L287.976,0 L287.984,0.014 Z" id="Shape" fill="#2D9596"></path>
                </g>
            </g>
        </g>
    </g>
</svg>