<?xml version="1.0" encoding="UTF-8"?>
<svg width="1200px" height="720px" viewBox="0 0 1200 720" version="1.1" xmlns="http://www.w3.org/2000/svg" xmlns:xlink="http://www.w3.org/1999/xlink">
    <title>watermark-light</title>
    <defs>
        <linearGradient x1="6.9388939e-14%" y1="-4.54747351e-11%" x2="100%" y2="-4.54747351e-11%" id="linearGradient-1">
            <stop stop-color="#265073" stop-opacity="0" offset="0%"></stop>
            <stop stop-color="#265073" offset="50.6364729%"></stop>
            <stop stop-color="#265073" offset="80.0808566%"></stop>
            <stop stop-color="#265073" stop-opacity="0" offset="100%"></stop>
        </linearGradient>
        <linearGradient x1="6.9388939e-14%" y1="-4.54747351e-11%" x2="100%" y2="-4.54747351e-11%" id="linearGradient-2">
            <stop stop-color="#2D9596" stop-opacity="0" offset="0%"></stop>
            <stop stop-color="#2D9596" offset="50.6364729%"></stop>
            <stop stop-color="#2D9596" offset="80.0808566%"></stop>
            <stop stop-color="#2D9596" stop-opacity="0" offset="100%"></stop>
        </linearGradient>
        <linearGradient x1="6.9388939e-14%" y1="-4.54747351e-11%" x2="100%" y2="-4.54747351e-11%" id="linearGradient-3">
            <stop stop-color="#265073" stop-opacity="0" offset="0%"></stop>
            <stop stop-color="#265073" offset="50.6364729%"></stop>
            <stop stop-color="#265073" offset="80.0808566%"></stop>
            <stop stop-color="#265073" stop-opacity="0" offset="100%"></stop>
        </linearGradient>
        <linearGradient x1="6.9388939e-14%" y1="-4.54747351e-11%" x2="100%" y2="-4.54747351e-11%" id="linearGradient-4">
            <stop stop-color="#2D9596" stop-opacity="0" offset="0%"></stop>
            <stop stop-color="#2D9596" offset="50.6364729%"></stop>
            <stop stop-color="#2D9596" offset="80.0808566%"></stop>
            <stop stop-color="#2D9596" stop-opacity="0" offset="100%"></stop>
        </linearGradient>
        <linearGradient x1="6.9388939e-14%" y1="-4.54747351e-11%" x2="100%" y2="-4.54747351e-11%" id="linearGradient-5">
            <stop stop-color="#265073" stop-opacity="0" offset="0%"></stop>
            <stop stop-color="#265073" offset="50.6364729%"></stop>
            <stop stop-color="#265073" offset="80.0808566%"></stop>
            <stop stop-color="#265073" stop-opacity="0" offset="100%"></stop>
        </linearGradient>
        <linearGradient x1="6.9388939e-14%" y1="-4.54747351e-11%" x2="100%" y2="-4.54747351e-11%" id="linearGradient-6">
            <stop stop-color="#2D9596" stop-opacity="0" offset="0%"></stop>
            <stop stop-color="#2D9596" offset="50.6364729%"></stop>
            <stop stop-color="#2D9596" offset="80.0808566%"></stop>
            <stop stop-color="#2D9596" stop-opacity="0" offset="100%"></stop>
        </linearGradient>
        <linearGradient x1="6.9388939e-14%" y1="-4.54747351e-11%" x2="100%" y2="-4.54747351e-11%" id="linearGradient-7">
            <stop stop-color="#265073" stop-opacity="0" offset="0%"></stop>
            <stop stop-color="#265073" offset="50.6364729%"></stop>
            <stop stop-color="#265073" offset="80.0808566%"></stop>
            <stop stop-color="#265073" stop-opacity="0" offset="100%"></stop>
        </linearGradient>
        <linearGradient x1="6.9388939e-14%" y1="-4.54747351e-11%" x2="100%" y2="-4.54747351e-11%" id="linearGradient-8">
            <stop stop-color="#2D9596" stop-opacity="0" offset="0%"></stop>
            <stop stop-color="#2D9596" offset="50.6364729%"></stop>
            <stop stop-color="#2D9596" offset="80.0808566%"></stop>
            <stop stop-color="#2D9596" stop-opacity="0" offset="100%"></stop>
        </linearGradient>
        <linearGradient x1="6.9388939e-14%" y1="-4.54747351e-11%" x2="100%" y2="-4.54747351e-11%" id="linearGradient-9">
            <stop stop-color="#265073" stop-opacity="0" offset="0%"></stop>
            <stop stop-color="#265073" offset="50.6364729%"></stop>
            <stop stop-color="#265073" offset="80.0808566%"></stop>
            <stop stop-color="#265073" stop-opacity="0" offset="100%"></stop>
        </linearGradient>
        <linearGradient x1="6.9388939e-14%" y1="-4.54747351e-11%" x2="100%" y2="-4.54747351e-11%" id="linearGradient-10">
            <stop stop-color="#2D9596" stop-opacity="0" offset="0%"></stop>
            <stop stop-color="#2D9596" offset="50.6364729%"></stop>
            <stop stop-color="#2D9596" offset="80.0808566%"></stop>
            <stop stop-color="#2D9596" stop-opacity="0" offset="100%"></stop>
        </linearGradient>
        <linearGradient x1="6.9388939e-14%" y1="-4.54747351e-11%" x2="100%" y2="-4.54747351e-11%" id="linearGradient-11">
            <stop stop-color="#265073" stop-opacity="0" offset="0%"></stop>
            <stop stop-color="#265073" offset="50.6364729%"></stop>
            <stop stop-color="#265073" offset="80.0808566%"></stop>
            <stop stop-color="#265073" stop-opacity="0" offset="100%"></stop>
        </linearGradient>
        <linearGradient x1="6.9388939e-14%" y1="-4.54747351e-11%" x2="100%" y2="-4.54747351e-11%" id="linearGradient-12">
            <stop stop-color="#2D9596" stop-opacity="0" offset="0%"></stop>
            <stop stop-color="#2D9596" offset="50.6364729%"></stop>
            <stop stop-color="#2D9596" offset="80.0808566%"></stop>
            <stop stop-color="#2D9596" stop-opacity="0" offset="100%"></stop>
        </linearGradient>
        <linearGradient x1="6.9388939e-14%" y1="-4.54747351e-11%" x2="100%" y2="-4.54747351e-11%" id="linearGradient-13">
            <stop stop-color="#265073" stop-opacity="0" offset="0%"></stop>
            <stop stop-color="#265073" offset="50.6364729%"></stop>
            <stop stop-color="#265073" offset="80.0808566%"></stop>
            <stop stop-color="#265073" stop-opacity="0" offset="100%"></stop>
        </linearGradient>
        <linearGradient x1="6.9388939e-14%" y1="-4.54747351e-11%" x2="100%" y2="-4.54747351e-11%" id="linearGradient-14">
            <stop stop-color="#2D9596" stop-opacity="0" offset="0%"></stop>
            <stop stop-color="#2D9596" offset="50.6364729%"></stop>
            <stop stop-color="#2D9596" offset="80.0808566%"></stop>
            <stop stop-color="#2D9596" stop-opacity="0" offset="100%"></stop>
        </linearGradient>
        <linearGradient x1="6.9388939e-14%" y1="-4.54747351e-11%" x2="100%" y2="-4.54747351e-11%" id="linearGradient-15">
            <stop stop-color="#265073" stop-opacity="0" offset="0%"></stop>
            <stop stop-color="#265073" offset="50.6364729%"></stop>
            <stop stop-color="#265073" offset="80.0808566%"></stop>
            <stop stop-color="#265073" stop-opacity="0" offset="100%"></stop>
        </linearGradient>
        <linearGradient x1="6.9388939e-14%" y1="-4.54747351e-11%" x2="100%" y2="-4.54747351e-11%" id="linearGradient-16">
            <stop stop-color="#2D9596" stop-opacity="0" offset="0%"></stop>
            <stop stop-color="#2D9596" offset="50.6364729%"></stop>
            <stop stop-color="#2D9596" offset="80.0808566%"></stop>
            <stop stop-color="#2D9596" stop-opacity="0" offset="100%"></stop>
        </linearGradient>
        <linearGradient x1="6.9388939e-14%" y1="-4.54747351e-11%" x2="100%" y2="-4.54747351e-11%" id="linearGradient-17">
            <stop stop-color="#265073" stop-opacity="0" offset="0%"></stop>
            <stop stop-color="#265073" offset="50.6364729%"></stop>
            <stop stop-color="#265073" offset="80.0808566%"></stop>
            <stop stop-color="#265073" stop-opacity="0" offset="100%"></stop>
        </linearGradient>
        <linearGradient x1="6.9388939e-14%" y1="-4.54747351e-11%" x2="100%" y2="-4.54747351e-11%" id="linearGradient-18">
            <stop stop-color="#2D9596" stop-opacity="0" offset="0%"></stop>
            <stop stop-color="#2D9596" offset="50.6364729%"></stop>
            <stop stop-color="#2D9596" offset="80.0808566%"></stop>
            <stop stop-color="#2D9596" stop-opacity="0" offset="100%"></stop>
        </linearGradient>
    </defs>
    <g id="watermark-light" stroke="none" stroke-width="1" fill="none" fill-rule="evenodd">
        <g id="solid" opacity="0" transform="translate(312, 111)">
            <path d="M95.9088395,249.477842 L192.44975,415.860902 L290.044424,415.860902 L242.13573,498.78019 L144.045698,499 L0.00589091635,249.477842 L95.9088395,249.477842 Z M385.301905,417.266365 L432.254406,498.355701 L338.328389,498.565695 L385.301905,417.266365 Z M288.150052,249.479001 L336.03773,332.184452 L239.280463,332.184452 L191.337677,249.479001 L288.150052,249.479001 Z" id="Shape" fill="#265073"></path>
            <path d="M432.276922,0.00149995997 L576,248.745862 L491.541339,395.779438 L432.21838,498.996184 L385.162304,417.509358 L482.638319,248.807894 L384.458294,83.5102714 L384.031985,83.5102714 L432.276922,0.00149995997 Z M339.052278,165.495084 L387.616641,249.479001 L339.052278,332.184452 L335.89963,332.184452 L288.150052,249.479001 L336.668187,165.495084 L339.052278,165.495084 Z" id="Shape" fill="#9AD0C2"></path>
            <path d="M191.337677,415.862219 L289.95147,416.019898 L242.009639,499 L191.337677,415.862219 Z M385.204448,417.43436 L432.250016,498.996184 L338.08071,498.997026 L385.204448,417.43436 Z M336.675806,165.495084 L288.150052,249.479001 L191.342061,249.470343 L239.280463,165.495925 L336.675806,165.495084 Z M156.359228,0.0134996397 L239.13806,0.371990073 L95.5587021,248.872483 L95.8999464,249.462843 L0,249.456017 L90.7136908,92.2610379 L144.012788,0.0134996397 L156.359228,0.0134996397 Z M432.289044,0.0209994396 L384.04711,83.5102714 L287.172844,83.5102714 L335.20913,0.371990073 L422.617541,0 L432.277036,0 L432.289044,0.0209994396 Z" id="Shape" fill="#2D9596"></path>
        </g>
        <g id="watermark" transform="translate(124, 74.4)">
            <g id="lines" transform="translate(0, 0)">
                <rect id="Rectangle" fill="url(#linearGradient-2)" x="84" y="535.601252" width="392" height="1" rx="0.5"></rect>
                <rect id="Rectangle-Copy-2" fill="url(#linearGradient-4)" x="220" y="552.601252" width="256" height="1" rx="0.5"></rect>
                <rect id="Rectangle-Copy-4" fill="url(#linearGradient-6)" transform="translate(349, 168.1013) rotate(120) translate(-349, -168.1013)" x="169" y="167.601252" width="360" height="1" rx="0.5"></rect>
                <rect id="Rectangle-Copy-8" fill="url(#linearGradient-8)" transform="translate(408, 234.1013) rotate(-60) translate(-408, -234.1013)" x="312" y="233.601252" width="192" height="1" rx="0.5"></rect>
                <rect id="Rectangle-Copy-13" fill="url(#linearGradient-4)" transform="translate(381, 454.1013) rotate(-120) translate(-381, -454.1013)" x="253" y="453.601252" width="256" height="1" rx="0.5"></rect>
                <rect id="Rectangle-Copy-5" fill="url(#linearGradient-4)" transform="translate(289, 111.1013) rotate(120) translate(-289, -111.1013)" x="161" y="110.601252" width="256" height="1" rx="0.5"></rect>
                <rect id="Rectangle-Copy-6" fill="url(#linearGradient-10)" x="0" y="36.6012517" width="512" height="1" rx="0.5"></rect>
                <rect id="Rectangle-Copy-7" fill="url(#linearGradient-10)" x="17" y="284.601252" width="512" height="1" rx="0.5"></rect>
                <rect id="Rectangle-Copy-3" fill="url(#linearGradient-12)" transform="translate(259, 404.1013) rotate(60) translate(-259, -404.1013)" x="51" y="403.601252" width="416" height="1" rx="0.5"></rect>
                <rect id="Rectangle-Copy-12" fill="url(#linearGradient-10)" transform="translate(568, 443.1013) rotate(-120) translate(-568, -443.1013)" x="312" y="442.601252" width="512" height="1" rx="0.5"></rect>
                <rect id="Rectangle-Copy-14" fill="url(#linearGradient-14)" transform="translate(477, 457.1013) rotate(120) translate(-477, -457.1013)" x="237" y="456.601252" width="480" height="1" rx="0.5"></rect>
                <rect id="Rectangle-Copy-19" fill="url(#linearGradient-14)" transform="translate(571, 458.1013) rotate(-60) translate(-571, -458.1013)" x="331" y="457.601252" width="480" height="1" rx="0.5"></rect>
                <rect id="Rectangle-Copy-20" fill="url(#linearGradient-14)" transform="translate(665, 458.1013) rotate(120) translate(-665, -458.1013)" x="425" y="457.601252" width="480" height="1" rx="0.5"></rect>
                <rect id="Rectangle-Copy-23" fill="url(#linearGradient-10)" transform="translate(748, 257.1013) rotate(-120) translate(-748, -257.1013)" x="492" y="256.601252" width="512" height="1" rx="0.5"></rect>
                <rect id="Rectangle-Copy-26" fill="url(#linearGradient-16)" transform="translate(620, 202.1013) rotate(-120) translate(-620, -202.1013)" x="476" y="201.601252" width="288" height="1" rx="0.5"></rect>
                <rect id="Rectangle-Copy-28" fill="url(#linearGradient-16)" transform="translate(601, 205.1013) rotate(-120) translate(-601, -205.1013)" x="457" y="204.601252" width="288" height="1" rx="0.5"></rect>
                <rect id="Rectangle-Copy" fill="url(#linearGradient-18)" x="512" y="535.601252" width="135" height="1" rx="0.5"></rect>
                <rect id="Rectangle-Copy-16" fill="url(#linearGradient-18)" x="404" y="200.601252" width="135" height="1" rx="0.5"></rect>
                <rect id="Rectangle-Copy-18" fill="url(#linearGradient-18)" transform="translate(399.5, 268.1013) rotate(180) translate(-399.5, -268.1013)" x="332" y="267.601252" width="135" height="1" rx="0.5"></rect>
                <rect id="Rectangle-Copy-29" fill="url(#linearGradient-18)" transform="translate(475.5, 371.1013) rotate(180) translate(-475.5, -371.1013)" x="408" y="370.601252" width="135" height="1" rx="0.5"></rect>
                <rect id="Rectangle-Copy-21" fill="url(#linearGradient-18)" x="502" y="35.6012517" width="135" height="1" rx="0.5"></rect>
                <rect id="Rectangle-Copy-24" fill="url(#linearGradient-18)" transform="translate(519.5, 119.1013) rotate(180) translate(-519.5, -119.1013)" x="452" y="118.601252" width="135" height="1" rx="0.5"></rect>
                <rect id="Rectangle-Copy-11" fill="url(#linearGradient-18)" transform="translate(426.5, 451.1013) rotate(180) translate(-426.5, -451.1013)" x="359" y="450.601252" width="135" height="1" rx="0.5"></rect>
                <rect id="Rectangle-Copy-10" fill="url(#linearGradient-18)" transform="translate(405.5, 329.1013) rotate(-120) translate(-405.5, -329.1013)" x="338" y="328.601252" width="135" height="1" rx="0.5"></rect>
                <rect id="Rectangle-Copy-17" fill="url(#linearGradient-18)" transform="translate(498.5, 247.1013) rotate(120) translate(-498.5, -247.1013)" x="431" y="246.601252" width="135" height="1" rx="0.5"></rect>
                <rect id="Rectangle-Copy-27" fill="url(#linearGradient-18)" transform="translate(605.5, 103.1013) rotate(120) translate(-605.5, -103.1013)" x="538" y="102.601252" width="135" height="1" rx="0.5"></rect>
                <rect id="Rectangle-Copy-22" fill="url(#linearGradient-8)" transform="translate(581, 103.1013) rotate(120) translate(-581, -103.1013)" x="485" y="102.601252" width="192" height="1" rx="0.5"></rect>
                <rect id="Rectangle-Copy-25" fill="url(#linearGradient-18)" transform="translate(501.5, 79.1013) rotate(120) translate(-501.5, -79.1013)" x="434" y="78.6012517" width="135" height="1" rx="0.5"></rect>
                <rect id="Rectangle-Copy-15" fill="url(#linearGradient-18)" transform="translate(552.5, 247.1013) rotate(-120) translate(-552.5, -247.1013)" x="485" y="246.601252" width="135" height="1" rx="0.5"></rect>
            </g>
            <g id="labels-outlined" transform="translate(210.2472, 47.4992)" fill="#2D9596" fill-rule="nonzero">
                <g id="#9AD0C2" transform="translate(414.5662, 449.8902) rotate(-60) translate(-414.5662, -449.8902)translate(397.3884, 446.8648)">
                    <path d="M0.1171875,3.703125 L1.02734375,3.703125 L1.39453125,2.359375 L0.48828125,2.359375 L0.609375,1.90625 L1.515625,1.90625 L1.98046875,0.15625 L2.5625,0.15625 L2.08984375,1.90625 L2.953125,1.90625 L3.43359375,0.15625 L4.0078125,0.15625 L3.53515625,1.90625 L4.44140625,1.90625 L4.3203125,2.359375 L3.4140625,2.359375 L3.04296875,3.703125 L3.953125,3.703125 L3.83203125,4.15625 L2.93359375,4.15625 L2.453125,5.89453125 L1.87890625,5.89453125 L2.3515625,4.15625 L1.48046875,4.15625 L1.015625,5.89453125 L0.43359375,5.89453125 L0.90625,4.15625 L-1.08424025e-13,4.15625 L0.1171875,3.703125 Z M2.4609375,3.703125 L2.83203125,2.359375 L1.96875,2.359375 L1.609375,3.703125 L2.4609375,3.703125 Z" id="Shape"></path>
                    <path d="M5.51171875,4.54296875 C5.53255208,4.93098958 5.68229167,5.19921875 5.9609375,5.34765625 C6.10416667,5.42578125 6.265625,5.46484375 6.4453125,5.46484375 C6.78125,5.46484375 7.06770833,5.32486979 7.3046875,5.04492188 C7.54166667,4.76497396 7.70963542,4.19661458 7.80859375,3.33984375 C7.65234375,3.58723958 7.45898437,3.76106771 7.22851562,3.86132813 C6.99804687,3.96158854 6.75,4.01171875 6.484375,4.01171875 C5.9453125,4.01171875 5.51888021,3.84375 5.20507812,3.5078125 C4.89127604,3.171875 4.734375,2.73958333 4.734375,2.2109375 C4.734375,1.703125 4.88932292,1.25651042 5.19921875,0.87109375 C5.50911458,0.485677083 5.96614583,0.29296875 6.5703125,0.29296875 C7.38541667,0.29296875 7.94791667,0.66015625 8.2578125,1.39453125 C8.4296875,1.79817708 8.515625,2.30338542 8.515625,2.91015625 C8.515625,3.59505208 8.41276042,4.20182292 8.20703125,4.73046875 C7.86588542,5.61067708 7.28776042,6.05078125 6.47265625,6.05078125 C5.92578125,6.05078125 5.51041667,5.90755208 5.2265625,5.62109375 C4.94270833,5.33463542 4.80078125,4.97526042 4.80078125,4.54296875 L5.51171875,4.54296875 Z M6.578125,3.39453125 C6.85677083,3.39453125 7.11132812,3.30273438 7.34179687,3.11914063 C7.57226562,2.93554688 7.6875,2.61458333 7.6875,2.15625 C7.6875,1.74479167 7.58398437,1.43815104 7.37695312,1.23632813 C7.16992187,1.03450521 6.90625,0.93359375 6.5859375,0.93359375 C6.2421875,0.93359375 5.96940104,1.04882813 5.76757812,1.27929688 C5.56575521,1.50976563 5.46484375,1.81770833 5.46484375,2.203125 C5.46484375,2.56770833 5.55338542,2.85742188 5.73046875,3.07226563 C5.90755208,3.28710938 6.19010417,3.39453125 6.578125,3.39453125 Z" id="Shape"></path>
                    <path d="M12.453125,3.54296875 L11.5820313,1.0078125 L10.65625,3.54296875 L12.453125,3.54296875 Z M11.1757813,0.15625 L12.0546875,0.15625 L14.1367188,5.89453125 L13.2851563,5.89453125 L12.703125,4.17578125 L10.4335938,4.17578125 L9.8125,5.89453125 L9.015625,5.89453125 L11.1757813,0.15625 Z" id="Shape"></path>
                    <path d="M17.046875,5.23046875 C17.3098958,5.23046875 17.5260417,5.203125 17.6953125,5.1484375 C17.9973958,5.046875 18.2447917,4.8515625 18.4375,4.5625 C18.5911458,4.33072917 18.7018229,4.03385417 18.7695312,3.671875 C18.8085937,3.45572917 18.828125,3.25520833 18.828125,3.0703125 C18.828125,2.359375 18.686849,1.80729167 18.4042969,1.4140625 C18.1217448,1.02083333 17.6666667,0.82421875 17.0390625,0.82421875 L15.6601562,0.82421875 L15.6601562,5.23046875 L17.046875,5.23046875 Z M14.8789062,0.15625 L17.203125,0.15625 C17.9921875,0.15625 18.6041667,0.436197917 19.0390625,0.99609375 C19.4270833,1.50130208 19.6210937,2.1484375 19.6210937,2.9375 C19.6210937,3.546875 19.5065104,4.09765625 19.2773437,4.58984375 C18.8736979,5.45963542 18.1796875,5.89453125 17.1953125,5.89453125 L14.8789062,5.89453125 L14.8789062,0.15625 Z" id="Shape"></path>
                    <path d="M22.1757813,0.30078125 C22.8997396,0.30078125 23.4231771,0.598958333 23.7460938,1.1953125 C23.9960938,1.65625 24.1210938,2.28776042 24.1210938,3.08984375 C24.1210938,3.85026042 24.0078125,4.47916667 23.78125,4.9765625 C23.453125,5.69010417 22.9166667,6.046875 22.171875,6.046875 C21.5,6.046875 21,5.75520833 20.671875,5.171875 C20.3984375,4.68489583 20.2617188,4.03125 20.2617188,3.2109375 C20.2617188,2.57552083 20.34375,2.02994792 20.5078125,1.57421875 C20.8151042,0.725260417 21.3710938,0.30078125 22.1757813,0.30078125 Z M22.1679688,5.40625 C22.5325521,5.40625 22.8229167,5.24479167 23.0390625,4.921875 C23.2552083,4.59895833 23.3632813,3.99739583 23.3632813,3.1171875 C23.3632813,2.48177083 23.2851563,1.95898437 23.1289063,1.54882812 C22.9726563,1.13867187 22.6692708,0.93359375 22.21875,0.93359375 C21.8046875,0.93359375 21.5019531,1.12825521 21.3105469,1.51757812 C21.1191406,1.90690104 21.0234375,2.48046875 21.0234375,3.23828125 C21.0234375,3.80859375 21.0846354,4.26692708 21.2070313,4.61328125 C21.3945313,5.14192708 21.7148438,5.40625 22.1679688,5.40625 Z" id="Shape"></path>
                    <path d="M27.4882812,5.78052604e-14 C28.2148437,5.78052604e-14 28.7786458,0.19140625 29.1796875,0.57421875 C29.5807292,0.95703125 29.8033854,1.39192708 29.8476562,1.87890625 L29.0898437,1.87890625 C29.0039062,1.50911458 28.8326823,1.21614583 28.5761719,1 C28.3196615,0.783854167 27.9596354,0.67578125 27.4960937,0.67578125 C26.9309896,0.67578125 26.4746094,0.874348958 26.1269531,1.27148438 C25.7792969,1.66861979 25.6054687,2.27734375 25.6054687,3.09765625 C25.6054687,3.76953125 25.7623698,4.31445313 26.0761719,4.73242188 C26.389974,5.15039063 26.8580729,5.359375 27.4804687,5.359375 C28.0533854,5.359375 28.4895833,5.13932292 28.7890625,4.69921875 C28.9479167,4.46744792 29.0664062,4.16276042 29.1445312,3.78515625 L29.9023437,3.78515625 C29.8346354,4.38932292 29.6106771,4.89583333 29.2304687,5.3046875 C28.7747396,5.796875 28.1601562,6.04296875 27.3867187,6.04296875 C26.7200521,6.04296875 26.1601562,5.84114583 25.7070312,5.4375 C25.1106771,4.90364583 24.8125,4.07942708 24.8125,2.96484375 C24.8125,2.11848958 25.0364583,1.42447917 25.484375,0.8828125 C25.96875,0.294270833 26.6367187,5.78052604e-14 27.4882812,5.78052604e-14 Z" id="Path"></path>
                    <path d="M30.4882813,5.89453125 C30.5143229,5.41276042 30.6139323,4.99348958 30.7871094,4.63671875 C30.9602865,4.27994792 31.2981771,3.95572917 31.8007813,3.6640625 L32.5507813,3.23046875 C32.8867188,3.03515625 33.1223958,2.86848958 33.2578125,2.73046875 C33.4713542,2.51432292 33.578125,2.26692708 33.578125,1.98828125 C33.578125,1.66276042 33.4804688,1.40429687 33.2851563,1.21289062 C33.0898438,1.02148437 32.8294271,0.92578125 32.5039063,0.92578125 C32.0221354,0.92578125 31.6888021,1.10807292 31.5039063,1.47265625 C31.4049479,1.66796875 31.3502604,1.93880208 31.3398438,2.28515625 L30.625,2.28515625 C30.6328125,1.79817708 30.7226563,1.40104167 30.8945313,1.09375 C31.1992188,0.552083333 31.7369792,0.28125 32.5078125,0.28125 C33.1484375,0.28125 33.6165365,0.454427083 33.9121094,0.80078125 C34.2076823,1.14713542 34.3554688,1.53255208 34.3554688,1.95703125 C34.3554688,2.40494792 34.1979167,2.78776042 33.8828125,3.10546875 C33.7005208,3.29036458 33.3736979,3.51432292 32.9023438,3.77734375 L32.3671875,4.07421875 C32.1119792,4.21484375 31.9114583,4.34895833 31.765625,4.4765625 C31.5052083,4.703125 31.3411458,4.95442708 31.2734375,5.23046875 L34.328125,5.23046875 L34.328125,5.89453125 L30.4882813,5.89453125 Z" id="Path"></path>
                </g>
                <g id="#9AD0C2-Copy" transform="translate(319.5662, 285.8902) rotate(-60) translate(-319.5662, -285.8902)translate(302.3884, 282.8648)">
                    <path d="M0.1171875,3.703125 L1.02734375,3.703125 L1.39453125,2.359375 L0.48828125,2.359375 L0.609375,1.90625 L1.515625,1.90625 L1.98046875,0.15625 L2.5625,0.15625 L2.08984375,1.90625 L2.953125,1.90625 L3.43359375,0.15625 L4.0078125,0.15625 L3.53515625,1.90625 L4.44140625,1.90625 L4.3203125,2.359375 L3.4140625,2.359375 L3.04296875,3.703125 L3.953125,3.703125 L3.83203125,4.15625 L2.93359375,4.15625 L2.453125,5.89453125 L1.87890625,5.89453125 L2.3515625,4.15625 L1.48046875,4.15625 L1.015625,5.89453125 L0.43359375,5.89453125 L0.90625,4.15625 L-1.35429096e-13,4.15625 L0.1171875,3.703125 Z M2.4609375,3.703125 L2.83203125,2.359375 L1.96875,2.359375 L1.609375,3.703125 L2.4609375,3.703125 Z" id="Shape"></path>
                    <path d="M5.51171875,4.54296875 C5.53255208,4.93098958 5.68229167,5.19921875 5.9609375,5.34765625 C6.10416667,5.42578125 6.265625,5.46484375 6.4453125,5.46484375 C6.78125,5.46484375 7.06770833,5.32486979 7.3046875,5.04492188 C7.54166667,4.76497396 7.70963542,4.19661458 7.80859375,3.33984375 C7.65234375,3.58723958 7.45898438,3.76106771 7.22851563,3.86132813 C6.99804688,3.96158854 6.75,4.01171875 6.484375,4.01171875 C5.9453125,4.01171875 5.51888021,3.84375 5.20507813,3.5078125 C4.89127604,3.171875 4.734375,2.73958333 4.734375,2.2109375 C4.734375,1.703125 4.88932292,1.25651042 5.19921875,0.87109375 C5.50911458,0.485677083 5.96614583,0.29296875 6.5703125,0.29296875 C7.38541667,0.29296875 7.94791667,0.66015625 8.2578125,1.39453125 C8.4296875,1.79817708 8.515625,2.30338542 8.515625,2.91015625 C8.515625,3.59505208 8.41276042,4.20182292 8.20703125,4.73046875 C7.86588542,5.61067708 7.28776042,6.05078125 6.47265625,6.05078125 C5.92578125,6.05078125 5.51041667,5.90755208 5.2265625,5.62109375 C4.94270833,5.33463542 4.80078125,4.97526042 4.80078125,4.54296875 L5.51171875,4.54296875 Z M6.578125,3.39453125 C6.85677083,3.39453125 7.11132813,3.30273438 7.34179688,3.11914063 C7.57226563,2.93554688 7.6875,2.61458333 7.6875,2.15625 C7.6875,1.74479167 7.58398438,1.43815104 7.37695313,1.23632813 C7.16992188,1.03450521 6.90625,0.93359375 6.5859375,0.93359375 C6.2421875,0.93359375 5.96940104,1.04882813 5.76757813,1.27929688 C5.56575521,1.50976563 5.46484375,1.81770833 5.46484375,2.203125 C5.46484375,2.56770833 5.55338542,2.85742188 5.73046875,3.07226563 C5.90755208,3.28710938 6.19010417,3.39453125 6.578125,3.39453125 Z" id="Shape"></path>
                    <path d="M12.453125,3.54296875 L11.5820312,1.0078125 L10.65625,3.54296875 L12.453125,3.54296875 Z M11.1757812,0.15625 L12.0546875,0.15625 L14.1367187,5.89453125 L13.2851562,5.89453125 L12.703125,4.17578125 L10.4335937,4.17578125 L9.8125,5.89453125 L9.015625,5.89453125 L11.1757812,0.15625 Z" id="Shape"></path>
                    <path d="M17.046875,5.23046875 C17.3098958,5.23046875 17.5260417,5.203125 17.6953125,5.1484375 C17.9973958,5.046875 18.2447917,4.8515625 18.4375,4.5625 C18.5911458,4.33072917 18.7018229,4.03385417 18.7695312,3.671875 C18.8085937,3.45572917 18.828125,3.25520833 18.828125,3.0703125 C18.828125,2.359375 18.686849,1.80729167 18.4042969,1.4140625 C18.1217448,1.02083333 17.6666667,0.82421875 17.0390625,0.82421875 L15.6601562,0.82421875 L15.6601562,5.23046875 L17.046875,5.23046875 Z M14.8789062,0.15625 L17.203125,0.15625 C17.9921875,0.15625 18.6041667,0.436197917 19.0390625,0.99609375 C19.4270833,1.50130208 19.6210937,2.1484375 19.6210937,2.9375 C19.6210937,3.546875 19.5065104,4.09765625 19.2773437,4.58984375 C18.8736979,5.45963542 18.1796875,5.89453125 17.1953125,5.89453125 L14.8789062,5.89453125 L14.8789062,0.15625 Z" id="Shape"></path>
                    <path d="M22.1757812,0.30078125 C22.8997396,0.30078125 23.4231771,0.598958333 23.7460937,1.1953125 C23.9960937,1.65625 24.1210937,2.28776042 24.1210937,3.08984375 C24.1210937,3.85026042 24.0078125,4.47916667 23.78125,4.9765625 C23.453125,5.69010417 22.9166667,6.046875 22.171875,6.046875 C21.5,6.046875 21,5.75520833 20.671875,5.171875 C20.3984375,4.68489583 20.2617187,4.03125 20.2617187,3.2109375 C20.2617187,2.57552083 20.34375,2.02994792 20.5078125,1.57421875 C20.8151042,0.725260417 21.3710937,0.30078125 22.1757812,0.30078125 Z M22.1679687,5.40625 C22.5325521,5.40625 22.8229167,5.24479167 23.0390625,4.921875 C23.2552083,4.59895833 23.3632812,3.99739583 23.3632812,3.1171875 C23.3632812,2.48177083 23.2851562,1.95898437 23.1289062,1.54882812 C22.9726562,1.13867187 22.6692708,0.93359375 22.21875,0.93359375 C21.8046875,0.93359375 21.5019531,1.12825521 21.3105469,1.51757812 C21.1191406,1.90690104 21.0234375,2.48046875 21.0234375,3.23828125 C21.0234375,3.80859375 21.0846354,4.26692708 21.2070312,4.61328125 C21.3945312,5.14192708 21.7148437,5.40625 22.1679687,5.40625 Z" id="Shape"></path>
                    <path d="M27.4882813,-1.87776073e-13 C28.2148438,-1.87776073e-13 28.7786458,0.19140625 29.1796875,0.57421875 C29.5807292,0.95703125 29.8033854,1.39192708 29.8476563,1.87890625 L29.0898438,1.87890625 C29.0039063,1.50911458 28.8326823,1.21614583 28.5761719,1 C28.3196615,0.783854167 27.9596354,0.67578125 27.4960938,0.67578125 C26.9309896,0.67578125 26.4746094,0.874348958 26.1269531,1.27148437 C25.7792969,1.66861979 25.6054688,2.27734375 25.6054688,3.09765625 C25.6054688,3.76953125 25.7623698,4.31445312 26.0761719,4.73242187 C26.389974,5.15039062 26.8580729,5.359375 27.4804688,5.359375 C28.0533854,5.359375 28.4895833,5.13932292 28.7890625,4.69921875 C28.9479167,4.46744792 29.0664063,4.16276042 29.1445313,3.78515625 L29.9023438,3.78515625 C29.8346354,4.38932292 29.6106771,4.89583333 29.2304688,5.3046875 C28.7747396,5.796875 28.1601563,6.04296875 27.3867188,6.04296875 C26.7200521,6.04296875 26.1601563,5.84114583 25.7070313,5.4375 C25.1106771,4.90364583 24.8125,4.07942708 24.8125,2.96484375 C24.8125,2.11848958 25.0364583,1.42447917 25.484375,0.8828125 C25.96875,0.294270833 26.6367188,-1.87776073e-13 27.4882813,-1.87776073e-13 Z" id="Path"></path>
                    <path d="M30.4882812,5.89453125 C30.5143229,5.41276042 30.6139323,4.99348958 30.7871094,4.63671875 C30.9602865,4.27994792 31.2981771,3.95572917 31.8007812,3.6640625 L32.5507812,3.23046875 C32.8867187,3.03515625 33.1223958,2.86848958 33.2578125,2.73046875 C33.4713542,2.51432292 33.578125,2.26692708 33.578125,1.98828125 C33.578125,1.66276042 33.4804687,1.40429688 33.2851562,1.21289063 C33.0898437,1.02148438 32.8294271,0.92578125 32.5039062,0.92578125 C32.0221354,0.92578125 31.6888021,1.10807292 31.5039062,1.47265625 C31.4049479,1.66796875 31.3502604,1.93880208 31.3398437,2.28515625 L30.625,2.28515625 C30.6328125,1.79817708 30.7226562,1.40104167 30.8945312,1.09375 C31.1992187,0.552083333 31.7369792,0.28125 32.5078125,0.28125 C33.1484375,0.28125 33.6165365,0.454427083 33.9121094,0.80078125 C34.2076823,1.14713542 34.3554687,1.53255208 34.3554687,1.95703125 C34.3554687,2.40494792 34.1979167,2.78776042 33.8828125,3.10546875 C33.7005208,3.29036458 33.3736979,3.51432292 32.9023437,3.77734375 L32.3671875,4.07421875 C32.1119792,4.21484375 31.9114583,4.34895833 31.765625,4.4765625 C31.5052083,4.703125 31.3411458,4.95442708 31.2734375,5.23046875 L34.328125,5.23046875 L34.328125,5.89453125 L30.4882812,5.89453125 Z" id="Path"></path>
                </g>
                <g id="#2D9596" transform="translate(217.297, 165)">
                    <path d="M0.1171875,3.546875 L1.02734375,3.546875 L1.39453125,2.203125 L0.48828125,2.203125 L0.609375,1.75 L1.515625,1.75 L1.98046875,0 L2.5625,0 L2.08984375,1.75 L2.953125,1.75 L3.43359375,0 L4.0078125,0 L3.53515625,1.75 L4.44140625,1.75 L4.3203125,2.203125 L3.4140625,2.203125 L3.04296875,3.546875 L3.953125,3.546875 L3.83203125,4 L2.93359375,4 L2.453125,5.73828125 L1.87890625,5.73828125 L2.3515625,4 L1.48046875,4 L1.015625,5.73828125 L0.43359375,5.73828125 L0.90625,4 L0,4 L0.1171875,3.546875 Z M2.4609375,3.546875 L2.83203125,2.203125 L1.96875,2.203125 L1.609375,3.546875 L2.4609375,3.546875 Z" id="Shape"></path>
                    <path d="M4.69921875,5.73828125 C4.72526042,5.25651042 4.82486979,4.83723958 4.99804688,4.48046875 C5.17122396,4.12369792 5.50911458,3.79947917 6.01171875,3.5078125 L6.76171875,3.07421875 C7.09765625,2.87890625 7.33333333,2.71223958 7.46875,2.57421875 C7.68229167,2.35807292 7.7890625,2.11067708 7.7890625,1.83203125 C7.7890625,1.50651042 7.69140625,1.24804688 7.49609375,1.05664062 C7.30078125,0.865234375 7.04036458,0.76953125 6.71484375,0.76953125 C6.23307292,0.76953125 5.89973958,0.951822917 5.71484375,1.31640625 C5.61588542,1.51171875 5.56119792,1.78255208 5.55078125,2.12890625 L4.8359375,2.12890625 C4.84375,1.64192708 4.93359375,1.24479167 5.10546875,0.9375 C5.41015625,0.395833333 5.94791667,0.125 6.71875,0.125 C7.359375,0.125 7.82747396,0.298177083 8.12304688,0.64453125 C8.41861979,0.990885417 8.56640625,1.37630208 8.56640625,1.80078125 C8.56640625,2.24869792 8.40885417,2.63151042 8.09375,2.94921875 C7.91145833,3.13411458 7.58463542,3.35807292 7.11328125,3.62109375 L6.578125,3.91796875 C6.32291667,4.05859375 6.12239583,4.19270833 5.9765625,4.3203125 C5.71614583,4.546875 5.55208333,4.79817708 5.484375,5.07421875 L8.5390625,5.07421875 L8.5390625,5.73828125 L4.69921875,5.73828125 Z" id="Path"></path>
                    <path d="M11.7109375,5.07421875 C11.9739583,5.07421875 12.1901042,5.046875 12.359375,4.9921875 C12.6614583,4.890625 12.9088542,4.6953125 13.1015625,4.40625 C13.2552083,4.17447917 13.3658854,3.87760417 13.4335938,3.515625 C13.4726562,3.29947917 13.4921875,3.09895833 13.4921875,2.9140625 C13.4921875,2.203125 13.3509115,1.65104167 13.0683594,1.2578125 C12.7858073,0.864583333 12.3307292,0.66796875 11.703125,0.66796875 L10.3242188,0.66796875 L10.3242188,5.07421875 L11.7109375,5.07421875 Z M9.54296875,0 L11.8671875,0 C12.65625,0 13.2682292,0.279947917 13.703125,0.83984375 C14.0911458,1.34505208 14.2851562,1.9921875 14.2851562,2.78125 C14.2851562,3.390625 14.1705729,3.94140625 13.9414062,4.43359375 C13.5377604,5.30338542 12.84375,5.73828125 11.859375,5.73828125 L9.54296875,5.73828125 L9.54296875,0 Z" id="Shape"></path>
                    <path d="M15.7382812,4.38671875 C15.7591146,4.77473958 15.9088542,5.04296875 16.1875,5.19140625 C16.3307292,5.26953125 16.4921875,5.30859375 16.671875,5.30859375 C17.0078125,5.30859375 17.2942708,5.16861979 17.53125,4.88867188 C17.7682292,4.60872396 17.9361979,4.04036458 18.0351562,3.18359375 C17.8789062,3.43098958 17.6855469,3.60481771 17.4550781,3.70507812 C17.2246094,3.80533854 16.9765625,3.85546875 16.7109375,3.85546875 C16.171875,3.85546875 15.7454427,3.6875 15.4316406,3.3515625 C15.1178385,3.015625 14.9609375,2.58333333 14.9609375,2.0546875 C14.9609375,1.546875 15.1158854,1.10026042 15.4257812,0.71484375 C15.7356771,0.329427083 16.1927083,0.13671875 16.796875,0.13671875 C17.6119792,0.13671875 18.1744792,0.50390625 18.484375,1.23828125 C18.65625,1.64192708 18.7421875,2.14713542 18.7421875,2.75390625 C18.7421875,3.43880208 18.6393229,4.04557292 18.4335938,4.57421875 C18.0924479,5.45442708 17.5143229,5.89453125 16.6992188,5.89453125 C16.1523438,5.89453125 15.7369792,5.75130208 15.453125,5.46484375 C15.1692708,5.17838542 15.0273438,4.81901042 15.0273438,4.38671875 L15.7382812,4.38671875 Z M16.8046875,3.23828125 C17.0833333,3.23828125 17.3378906,3.14648438 17.5683594,2.96289062 C17.7988281,2.77929688 17.9140625,2.45833333 17.9140625,2 C17.9140625,1.58854167 17.8105469,1.28190104 17.6035156,1.08007812 C17.3964844,0.878255208 17.1328125,0.77734375 16.8125,0.77734375 C16.46875,0.77734375 16.1959635,0.892578125 15.9941406,1.12304688 C15.7923177,1.35351562 15.6914062,1.66145833 15.6914062,2.046875 C15.6914062,2.41145833 15.7799479,2.70117188 15.9570312,2.91601562 C16.1341146,3.13085938 16.4166667,3.23828125 16.8046875,3.23828125 Z" id="Shape"></path>
                    <path d="M20.1132812,4.3125 C20.1601562,4.71354167 20.3463542,4.99088542 20.671875,5.14453125 C20.8385417,5.22265625 21.03125,5.26171875 21.25,5.26171875 C21.6666667,5.26171875 21.9752604,5.12890625 22.1757812,4.86328125 C22.3763021,4.59765625 22.4765625,4.30338542 22.4765625,3.98046875 C22.4765625,3.58984375 22.3574219,3.28776042 22.1191406,3.07421875 C21.8808594,2.86067708 21.5950521,2.75390625 21.2617188,2.75390625 C21.0195312,2.75390625 20.811849,2.80078125 20.6386719,2.89453125 C20.4654948,2.98828125 20.3177083,3.11848958 20.1953125,3.28515625 L19.5859375,3.25 L20.0117188,0.23828125 L22.9179688,0.23828125 L22.9179688,0.91796875 L20.5390625,0.91796875 L20.3007812,2.47265625 C20.4309896,2.37369792 20.5546875,2.29947917 20.671875,2.25 C20.8802083,2.1640625 21.1210938,2.12109375 21.3945312,2.12109375 C21.9075521,2.12109375 22.3424479,2.28645833 22.6992188,2.6171875 C23.0559896,2.94791667 23.234375,3.3671875 23.234375,3.875 C23.234375,4.40364583 23.0709635,4.86979167 22.7441406,5.2734375 C22.4173177,5.67708333 21.8958333,5.87890625 21.1796875,5.87890625 C20.7239583,5.87890625 20.3209635,5.75065104 19.9707031,5.49414062 C19.6204427,5.23763021 19.4244792,4.84375 19.3828125,4.3125 L20.1132812,4.3125 Z" id="Path"></path>
                    <path d="M24.6367188,4.38671875 C24.6575521,4.77473958 24.8072917,5.04296875 25.0859375,5.19140625 C25.2291667,5.26953125 25.390625,5.30859375 25.5703125,5.30859375 C25.90625,5.30859375 26.1927083,5.16861979 26.4296875,4.88867188 C26.6666667,4.60872396 26.8346354,4.04036458 26.9335938,3.18359375 C26.7773438,3.43098958 26.5839844,3.60481771 26.3535156,3.70507812 C26.1230469,3.80533854 25.875,3.85546875 25.609375,3.85546875 C25.0703125,3.85546875 24.6438802,3.6875 24.3300781,3.3515625 C24.016276,3.015625 23.859375,2.58333333 23.859375,2.0546875 C23.859375,1.546875 24.0143229,1.10026042 24.3242188,0.71484375 C24.6341146,0.329427083 25.0911458,0.13671875 25.6953125,0.13671875 C26.5104167,0.13671875 27.0729167,0.50390625 27.3828125,1.23828125 C27.5546875,1.64192708 27.640625,2.14713542 27.640625,2.75390625 C27.640625,3.43880208 27.5377604,4.04557292 27.3320312,4.57421875 C26.9908854,5.45442708 26.4127604,5.89453125 25.5976562,5.89453125 C25.0507812,5.89453125 24.6354167,5.75130208 24.3515625,5.46484375 C24.0677083,5.17838542 23.9257812,4.81901042 23.9257812,4.38671875 L24.6367188,4.38671875 Z M25.703125,3.23828125 C25.9817708,3.23828125 26.2363281,3.14648438 26.4667969,2.96289062 C26.6972656,2.77929688 26.8125,2.45833333 26.8125,2 C26.8125,1.58854167 26.7089844,1.28190104 26.5019531,1.08007812 C26.2949219,0.878255208 26.03125,0.77734375 25.7109375,0.77734375 C25.3671875,0.77734375 25.094401,0.892578125 24.8925781,1.12304688 C24.6907552,1.35351562 24.5898438,1.66145833 24.5898438,2.046875 C24.5898438,2.41145833 24.6783854,2.70117188 24.8554688,2.91601562 C25.0325521,3.13085938 25.3151042,3.23828125 25.703125,3.23828125 Z" id="Shape"></path>
                    <path d="M30.3632812,0.12109375 C30.9882812,0.12109375 31.4238281,0.283203125 31.6699219,0.607421875 C31.9160156,0.931640625 32.0390625,1.265625 32.0390625,1.609375 L31.34375,1.609375 C31.3020833,1.38802083 31.2356771,1.21484375 31.1445312,1.08984375 C30.9752604,0.85546875 30.71875,0.73828125 30.375,0.73828125 C29.9817708,0.73828125 29.6692708,0.919921875 29.4375,1.28320312 C29.2057292,1.64648438 29.0768229,2.16666667 29.0507812,2.84375 C29.2122396,2.60677083 29.4153646,2.4296875 29.6601562,2.3125 C29.8841146,2.20833333 30.1341146,2.15625 30.4101562,2.15625 C30.8789062,2.15625 31.2877604,2.30598958 31.6367188,2.60546875 C31.9856771,2.90494792 32.1601562,3.3515625 32.1601562,3.9453125 C32.1601562,4.453125 31.9947917,4.90299479 31.6640625,5.29492188 C31.3333333,5.68684896 30.8619792,5.8828125 30.25,5.8828125 C29.7265625,5.8828125 29.2747396,5.68424479 28.8945312,5.28710938 C28.5143229,4.88997396 28.3242188,4.22135417 28.3242188,3.28125 C28.3242188,2.5859375 28.4088542,1.99609375 28.578125,1.51171875 C28.9036458,0.584635417 29.4986979,0.12109375 30.3632812,0.12109375 Z M30.3125,5.2578125 C30.6822917,5.2578125 30.9589844,5.13346354 31.1425781,4.88476562 C31.3261719,4.63606771 31.4179688,4.34244792 31.4179688,4.00390625 C31.4179688,3.71744792 31.3359375,3.44466146 31.171875,3.18554688 C31.0078125,2.92643229 30.7096354,2.796875 30.2773438,2.796875 C29.9752604,2.796875 29.7102865,2.89713542 29.4824219,3.09765625 C29.2545573,3.29817708 29.140625,3.60026042 29.140625,4.00390625 C29.140625,4.35807292 29.2441406,4.65559896 29.4511719,4.89648438 C29.6582031,5.13736979 29.9453125,5.2578125 30.3125,5.2578125 Z" id="Shape"></path>
                </g>
                <g id="#2D9596-Copy-4" transform="translate(121.297, 0)">
                    <path d="M0.1171875,3.546875 L1.02734375,3.546875 L1.39453125,2.203125 L0.48828125,2.203125 L0.609375,1.75 L1.515625,1.75 L1.98046875,0 L2.5625,0 L2.08984375,1.75 L2.953125,1.75 L3.43359375,0 L4.0078125,0 L3.53515625,1.75 L4.44140625,1.75 L4.3203125,2.203125 L3.4140625,2.203125 L3.04296875,3.546875 L3.953125,3.546875 L3.83203125,4 L2.93359375,4 L2.453125,5.73828125 L1.87890625,5.73828125 L2.3515625,4 L1.48046875,4 L1.015625,5.73828125 L0.43359375,5.73828125 L0.90625,4 L0,4 L0.1171875,3.546875 Z M2.4609375,3.546875 L2.83203125,2.203125 L1.96875,2.203125 L1.609375,3.546875 L2.4609375,3.546875 Z" id="Shape"></path>
                    <path d="M4.69921875,5.73828125 C4.72526042,5.25651042 4.82486979,4.83723958 4.99804688,4.48046875 C5.17122396,4.12369792 5.50911458,3.79947917 6.01171875,3.5078125 L6.76171875,3.07421875 C7.09765625,2.87890625 7.33333333,2.71223958 7.46875,2.57421875 C7.68229167,2.35807292 7.7890625,2.11067708 7.7890625,1.83203125 C7.7890625,1.50651042 7.69140625,1.24804688 7.49609375,1.05664062 C7.30078125,0.865234375 7.04036458,0.76953125 6.71484375,0.76953125 C6.23307292,0.76953125 5.89973958,0.951822917 5.71484375,1.31640625 C5.61588542,1.51171875 5.56119792,1.78255208 5.55078125,2.12890625 L4.8359375,2.12890625 C4.84375,1.64192708 4.93359375,1.24479167 5.10546875,0.9375 C5.41015625,0.395833333 5.94791667,0.125 6.71875,0.125 C7.359375,0.125 7.82747396,0.298177083 8.12304688,0.64453125 C8.41861979,0.990885417 8.56640625,1.37630208 8.56640625,1.80078125 C8.56640625,2.24869792 8.40885417,2.63151042 8.09375,2.94921875 C7.91145833,3.13411458 7.58463542,3.35807292 7.11328125,3.62109375 L6.578125,3.91796875 C6.32291667,4.05859375 6.12239583,4.19270833 5.9765625,4.3203125 C5.71614583,4.546875 5.55208333,4.79817708 5.484375,5.07421875 L8.5390625,5.07421875 L8.5390625,5.73828125 L4.69921875,5.73828125 Z" id="Path"></path>
                    <path d="M11.7109375,5.07421875 C11.9739583,5.07421875 12.1901042,5.046875 12.359375,4.9921875 C12.6614583,4.890625 12.9088542,4.6953125 13.1015625,4.40625 C13.2552083,4.17447917 13.3658854,3.87760417 13.4335938,3.515625 C13.4726562,3.29947917 13.4921875,3.09895833 13.4921875,2.9140625 C13.4921875,2.203125 13.3509115,1.65104167 13.0683594,1.2578125 C12.7858073,0.864583333 12.3307292,0.66796875 11.703125,0.66796875 L10.3242188,0.66796875 L10.3242188,5.07421875 L11.7109375,5.07421875 Z M9.54296875,0 L11.8671875,0 C12.65625,0 13.2682292,0.279947917 13.703125,0.83984375 C14.0911458,1.34505208 14.2851562,1.9921875 14.2851562,2.78125 C14.2851562,3.390625 14.1705729,3.94140625 13.9414062,4.43359375 C13.5377604,5.30338542 12.84375,5.73828125 11.859375,5.73828125 L9.54296875,5.73828125 L9.54296875,0 Z" id="Shape"></path>
                    <path d="M15.7382812,4.38671875 C15.7591146,4.77473958 15.9088542,5.04296875 16.1875,5.19140625 C16.3307292,5.26953125 16.4921875,5.30859375 16.671875,5.30859375 C17.0078125,5.30859375 17.2942708,5.16861979 17.53125,4.88867188 C17.7682292,4.60872396 17.9361979,4.04036458 18.0351562,3.18359375 C17.8789062,3.43098958 17.6855469,3.60481771 17.4550781,3.70507812 C17.2246094,3.80533854 16.9765625,3.85546875 16.7109375,3.85546875 C16.171875,3.85546875 15.7454427,3.6875 15.4316406,3.3515625 C15.1178385,3.015625 14.9609375,2.58333333 14.9609375,2.0546875 C14.9609375,1.546875 15.1158854,1.10026042 15.4257812,0.71484375 C15.7356771,0.329427083 16.1927083,0.13671875 16.796875,0.13671875 C17.6119792,0.13671875 18.1744792,0.50390625 18.484375,1.23828125 C18.65625,1.64192708 18.7421875,2.14713542 18.7421875,2.75390625 C18.7421875,3.43880208 18.6393229,4.04557292 18.4335938,4.57421875 C18.0924479,5.45442708 17.5143229,5.89453125 16.6992188,5.89453125 C16.1523438,5.89453125 15.7369792,5.75130208 15.453125,5.46484375 C15.1692708,5.17838542 15.0273438,4.81901042 15.0273438,4.38671875 L15.7382812,4.38671875 Z M16.8046875,3.23828125 C17.0833333,3.23828125 17.3378906,3.14648438 17.5683594,2.96289062 C17.7988281,2.77929688 17.9140625,2.45833333 17.9140625,2 C17.9140625,1.58854167 17.8105469,1.28190104 17.6035156,1.08007812 C17.3964844,0.878255208 17.1328125,0.77734375 16.8125,0.77734375 C16.46875,0.77734375 16.1959635,0.892578125 15.9941406,1.12304688 C15.7923177,1.35351562 15.6914062,1.66145833 15.6914062,2.046875 C15.6914062,2.41145833 15.7799479,2.70117188 15.9570312,2.91601562 C16.1341146,3.13085938 16.4166667,3.23828125 16.8046875,3.23828125 Z" id="Shape"></path>
                    <path d="M20.1132812,4.3125 C20.1601562,4.71354167 20.3463542,4.99088542 20.671875,5.14453125 C20.8385417,5.22265625 21.03125,5.26171875 21.25,5.26171875 C21.6666667,5.26171875 21.9752604,5.12890625 22.1757812,4.86328125 C22.3763021,4.59765625 22.4765625,4.30338542 22.4765625,3.98046875 C22.4765625,3.58984375 22.3574219,3.28776042 22.1191406,3.07421875 C21.8808594,2.86067708 21.5950521,2.75390625 21.2617188,2.75390625 C21.0195312,2.75390625 20.811849,2.80078125 20.6386719,2.89453125 C20.4654948,2.98828125 20.3177083,3.11848958 20.1953125,3.28515625 L19.5859375,3.25 L20.0117188,0.23828125 L22.9179688,0.23828125 L22.9179688,0.91796875 L20.5390625,0.91796875 L20.3007812,2.47265625 C20.4309896,2.37369792 20.5546875,2.29947917 20.671875,2.25 C20.8802083,2.1640625 21.1210938,2.12109375 21.3945312,2.12109375 C21.9075521,2.12109375 22.3424479,2.28645833 22.6992188,2.6171875 C23.0559896,2.94791667 23.234375,3.3671875 23.234375,3.875 C23.234375,4.40364583 23.0709635,4.86979167 22.7441406,5.2734375 C22.4173177,5.67708333 21.8958333,5.87890625 21.1796875,5.87890625 C20.7239583,5.87890625 20.3209635,5.75065104 19.9707031,5.49414062 C19.6204427,5.23763021 19.4244792,4.84375 19.3828125,4.3125 L20.1132812,4.3125 Z" id="Path"></path>
                    <path d="M24.6367188,4.38671875 C24.6575521,4.77473958 24.8072917,5.04296875 25.0859375,5.19140625 C25.2291667,5.26953125 25.390625,5.30859375 25.5703125,5.30859375 C25.90625,5.30859375 26.1927083,5.16861979 26.4296875,4.88867188 C26.6666667,4.60872396 26.8346354,4.04036458 26.9335938,3.18359375 C26.7773438,3.43098958 26.5839844,3.60481771 26.3535156,3.70507812 C26.1230469,3.80533854 25.875,3.85546875 25.609375,3.85546875 C25.0703125,3.85546875 24.6438802,3.6875 24.3300781,3.3515625 C24.016276,3.015625 23.859375,2.58333333 23.859375,2.0546875 C23.859375,1.546875 24.0143229,1.10026042 24.3242188,0.71484375 C24.6341146,0.329427083 25.0911458,0.13671875 25.6953125,0.13671875 C26.5104167,0.13671875 27.0729167,0.50390625 27.3828125,1.23828125 C27.5546875,1.64192708 27.640625,2.14713542 27.640625,2.75390625 C27.640625,3.43880208 27.5377604,4.04557292 27.3320312,4.57421875 C26.9908854,5.45442708 26.4127604,5.89453125 25.5976562,5.89453125 C25.0507812,5.89453125 24.6354167,5.75130208 24.3515625,5.46484375 C24.0677083,5.17838542 23.9257812,4.81901042 23.9257812,4.38671875 L24.6367188,4.38671875 Z M25.703125,3.23828125 C25.9817708,3.23828125 26.2363281,3.14648438 26.4667969,2.96289062 C26.6972656,2.77929688 26.8125,2.45833333 26.8125,2 C26.8125,1.58854167 26.7089844,1.28190104 26.5019531,1.08007812 C26.2949219,0.878255208 26.03125,0.77734375 25.7109375,0.77734375 C25.3671875,0.77734375 25.094401,0.892578125 24.8925781,1.12304688 C24.6907552,1.35351562 24.5898438,1.66145833 24.5898438,2.046875 C24.5898438,2.41145833 24.6783854,2.70117188 24.8554688,2.91601562 C25.0325521,3.13085938 25.3151042,3.23828125 25.703125,3.23828125 Z" id="Shape"></path>
                    <path d="M30.3632812,0.12109375 C30.9882812,0.12109375 31.4238281,0.283203125 31.6699219,0.607421875 C31.9160156,0.931640625 32.0390625,1.265625 32.0390625,1.609375 L31.34375,1.609375 C31.3020833,1.38802083 31.2356771,1.21484375 31.1445312,1.08984375 C30.9752604,0.85546875 30.71875,0.73828125 30.375,0.73828125 C29.9817708,0.73828125 29.6692708,0.919921875 29.4375,1.28320312 C29.2057292,1.64648438 29.0768229,2.16666667 29.0507812,2.84375 C29.2122396,2.60677083 29.4153646,2.4296875 29.6601562,2.3125 C29.8841146,2.20833333 30.1341146,2.15625 30.4101562,2.15625 C30.8789062,2.15625 31.2877604,2.30598958 31.6367188,2.60546875 C31.9856771,2.90494792 32.1601562,3.3515625 32.1601562,3.9453125 C32.1601562,4.453125 31.9947917,4.90299479 31.6640625,5.29492188 C31.3333333,5.68684896 30.8619792,5.8828125 30.25,5.8828125 C29.7265625,5.8828125 29.2747396,5.68424479 28.8945312,5.28710938 C28.5143229,4.88997396 28.3242188,4.22135417 28.3242188,3.28125 C28.3242188,2.5859375 28.4088542,1.99609375 28.578125,1.51171875 C28.9036458,0.584635417 29.4986979,0.12109375 30.3632812,0.12109375 Z M30.3125,5.2578125 C30.6822917,5.2578125 30.9589844,5.13346354 31.1425781,4.88476562 C31.3261719,4.63606771 31.4179688,4.34244792 31.4179688,4.00390625 C31.4179688,3.71744792 31.3359375,3.44466146 31.171875,3.18554688 C31.0078125,2.92643229 30.7096354,2.796875 30.2773438,2.796875 C29.9752604,2.796875 29.7102865,2.89713542 29.4824219,3.09765625 C29.2545573,3.29817708 29.140625,3.60026042 29.140625,4.00390625 C29.140625,4.35807292 29.2441406,4.65559896 29.4511719,4.89648438 C29.6582031,5.13736979 29.9453125,5.2578125 30.3125,5.2578125 Z" id="Shape"></path>
                </g>
                <g id="#2D9596-Copy" transform="translate(314.297, 0)">
                    <path d="M0.1171875,3.546875 L1.02734375,3.546875 L1.39453125,2.203125 L0.48828125,2.203125 L0.609375,1.75 L1.515625,1.75 L1.98046875,0 L2.5625,0 L2.08984375,1.75 L2.953125,1.75 L3.43359375,0 L4.0078125,0 L3.53515625,1.75 L4.44140625,1.75 L4.3203125,2.203125 L3.4140625,2.203125 L3.04296875,3.546875 L3.953125,3.546875 L3.83203125,4 L2.93359375,4 L2.453125,5.73828125 L1.87890625,5.73828125 L2.3515625,4 L1.48046875,4 L1.015625,5.73828125 L0.43359375,5.73828125 L0.90625,4 L0,4 L0.1171875,3.546875 Z M2.4609375,3.546875 L2.83203125,2.203125 L1.96875,2.203125 L1.609375,3.546875 L2.4609375,3.546875 Z" id="Shape"></path>
                    <path d="M4.69921875,5.73828125 C4.72526042,5.25651042 4.82486979,4.83723958 4.99804688,4.48046875 C5.17122396,4.12369792 5.50911458,3.79947917 6.01171875,3.5078125 L6.76171875,3.07421875 C7.09765625,2.87890625 7.33333333,2.71223958 7.46875,2.57421875 C7.68229167,2.35807292 7.7890625,2.11067708 7.7890625,1.83203125 C7.7890625,1.50651042 7.69140625,1.24804688 7.49609375,1.05664062 C7.30078125,0.865234375 7.04036458,0.76953125 6.71484375,0.76953125 C6.23307292,0.76953125 5.89973958,0.951822917 5.71484375,1.31640625 C5.61588542,1.51171875 5.56119792,1.78255208 5.55078125,2.12890625 L4.8359375,2.12890625 C4.84375,1.64192708 4.93359375,1.24479167 5.10546875,0.9375 C5.41015625,0.395833333 5.94791667,0.125 6.71875,0.125 C7.359375,0.125 7.82747396,0.298177083 8.12304688,0.64453125 C8.41861979,0.990885417 8.56640625,1.37630208 8.56640625,1.80078125 C8.56640625,2.24869792 8.40885417,2.63151042 8.09375,2.94921875 C7.91145833,3.13411458 7.58463542,3.35807292 7.11328125,3.62109375 L6.578125,3.91796875 C6.32291667,4.05859375 6.12239583,4.19270833 5.9765625,4.3203125 C5.71614583,4.546875 5.55208333,4.79817708 5.484375,5.07421875 L8.5390625,5.07421875 L8.5390625,5.73828125 L4.69921875,5.73828125 Z" id="Path"></path>
                    <path d="M11.7109375,5.07421875 C11.9739583,5.07421875 12.1901042,5.046875 12.359375,4.9921875 C12.6614583,4.890625 12.9088542,4.6953125 13.1015625,4.40625 C13.2552083,4.17447917 13.3658854,3.87760417 13.4335938,3.515625 C13.4726562,3.29947917 13.4921875,3.09895833 13.4921875,2.9140625 C13.4921875,2.203125 13.3509115,1.65104167 13.0683594,1.2578125 C12.7858073,0.864583333 12.3307292,0.66796875 11.703125,0.66796875 L10.3242188,0.66796875 L10.3242188,5.07421875 L11.7109375,5.07421875 Z M9.54296875,0 L11.8671875,0 C12.65625,0 13.2682292,0.279947917 13.703125,0.83984375 C14.0911458,1.34505208 14.2851562,1.9921875 14.2851562,2.78125 C14.2851562,3.390625 14.1705729,3.94140625 13.9414062,4.43359375 C13.5377604,5.30338542 12.84375,5.73828125 11.859375,5.73828125 L9.54296875,5.73828125 L9.54296875,0 Z" id="Shape"></path>
                    <path d="M15.7382812,4.38671875 C15.7591146,4.77473958 15.9088542,5.04296875 16.1875,5.19140625 C16.3307292,5.26953125 16.4921875,5.30859375 16.671875,5.30859375 C17.0078125,5.30859375 17.2942708,5.16861979 17.53125,4.88867188 C17.7682292,4.60872396 17.9361979,4.04036458 18.0351562,3.18359375 C17.8789062,3.43098958 17.6855469,3.60481771 17.4550781,3.70507812 C17.2246094,3.80533854 16.9765625,3.85546875 16.7109375,3.85546875 C16.171875,3.85546875 15.7454427,3.6875 15.4316406,3.3515625 C15.1178385,3.015625 14.9609375,2.58333333 14.9609375,2.0546875 C14.9609375,1.546875 15.1158854,1.10026042 15.4257812,0.71484375 C15.7356771,0.329427083 16.1927083,0.13671875 16.796875,0.13671875 C17.6119792,0.13671875 18.1744792,0.50390625 18.484375,1.23828125 C18.65625,1.64192708 18.7421875,2.14713542 18.7421875,2.75390625 C18.7421875,3.43880208 18.6393229,4.04557292 18.4335938,4.57421875 C18.0924479,5.45442708 17.5143229,5.89453125 16.6992188,5.89453125 C16.1523438,5.89453125 15.7369792,5.75130208 15.453125,5.46484375 C15.1692708,5.17838542 15.0273438,4.81901042 15.0273438,4.38671875 L15.7382812,4.38671875 Z M16.8046875,3.23828125 C17.0833333,3.23828125 17.3378906,3.14648438 17.5683594,2.96289062 C17.7988281,2.77929688 17.9140625,2.45833333 17.9140625,2 C17.9140625,1.58854167 17.8105469,1.28190104 17.6035156,1.08007812 C17.3964844,0.878255208 17.1328125,0.77734375 16.8125,0.77734375 C16.46875,0.77734375 16.1959635,0.892578125 15.9941406,1.12304688 C15.7923177,1.35351562 15.6914062,1.66145833 15.6914062,2.046875 C15.6914062,2.41145833 15.7799479,2.70117188 15.9570312,2.91601562 C16.1341146,3.13085938 16.4166667,3.23828125 16.8046875,3.23828125 Z" id="Shape"></path>
                    <path d="M20.1132812,4.3125 C20.1601562,4.71354167 20.3463542,4.99088542 20.671875,5.14453125 C20.8385417,5.22265625 21.03125,5.26171875 21.25,5.26171875 C21.6666667,5.26171875 21.9752604,5.12890625 22.1757812,4.86328125 C22.3763021,4.59765625 22.4765625,4.30338542 22.4765625,3.98046875 C22.4765625,3.58984375 22.3574219,3.28776042 22.1191406,3.07421875 C21.8808594,2.86067708 21.5950521,2.75390625 21.2617188,2.75390625 C21.0195312,2.75390625 20.811849,2.80078125 20.6386719,2.89453125 C20.4654948,2.98828125 20.3177083,3.11848958 20.1953125,3.28515625 L19.5859375,3.25 L20.0117188,0.23828125 L22.9179688,0.23828125 L22.9179688,0.91796875 L20.5390625,0.91796875 L20.3007812,2.47265625 C20.4309896,2.37369792 20.5546875,2.29947917 20.671875,2.25 C20.8802083,2.1640625 21.1210938,2.12109375 21.3945312,2.12109375 C21.9075521,2.12109375 22.3424479,2.28645833 22.6992188,2.6171875 C23.0559896,2.94791667 23.234375,3.3671875 23.234375,3.875 C23.234375,4.40364583 23.0709635,4.86979167 22.7441406,5.2734375 C22.4173177,5.67708333 21.8958333,5.87890625 21.1796875,5.87890625 C20.7239583,5.87890625 20.3209635,5.75065104 19.9707031,5.49414062 C19.6204427,5.23763021 19.4244792,4.84375 19.3828125,4.3125 L20.1132812,4.3125 Z" id="Path"></path>
                    <path d="M24.6367188,4.38671875 C24.6575521,4.77473958 24.8072917,5.04296875 25.0859375,5.19140625 C25.2291667,5.26953125 25.390625,5.30859375 25.5703125,5.30859375 C25.90625,5.30859375 26.1927083,5.16861979 26.4296875,4.88867188 C26.6666667,4.60872396 26.8346354,4.04036458 26.9335938,3.18359375 C26.7773438,3.43098958 26.5839844,3.60481771 26.3535156,3.70507812 C26.1230469,3.80533854 25.875,3.85546875 25.609375,3.85546875 C25.0703125,3.85546875 24.6438802,3.6875 24.3300781,3.3515625 C24.016276,3.015625 23.859375,2.58333333 23.859375,2.0546875 C23.859375,1.546875 24.0143229,1.10026042 24.3242188,0.71484375 C24.6341146,0.329427083 25.0911458,0.13671875 25.6953125,0.13671875 C26.5104167,0.13671875 27.0729167,0.50390625 27.3828125,1.23828125 C27.5546875,1.64192708 27.640625,2.14713542 27.640625,2.75390625 C27.640625,3.43880208 27.5377604,4.04557292 27.3320312,4.57421875 C26.9908854,5.45442708 26.4127604,5.89453125 25.5976562,5.89453125 C25.0507812,5.89453125 24.6354167,5.75130208 24.3515625,5.46484375 C24.0677083,5.17838542 23.9257812,4.81901042 23.9257812,4.38671875 L24.6367188,4.38671875 Z M25.703125,3.23828125 C25.9817708,3.23828125 26.2363281,3.14648438 26.4667969,2.96289062 C26.6972656,2.77929688 26.8125,2.45833333 26.8125,2 C26.8125,1.58854167 26.7089844,1.28190104 26.5019531,1.08007812 C26.2949219,0.878255208 26.03125,0.77734375 25.7109375,0.77734375 C25.3671875,0.77734375 25.094401,0.892578125 24.8925781,1.12304688 C24.6907552,1.35351562 24.5898438,1.66145833 24.5898438,2.046875 C24.5898438,2.41145833 24.6783854,2.70117188 24.8554688,2.91601562 C25.0325521,3.13085938 25.3151042,3.23828125 25.703125,3.23828125 Z" id="Shape"></path>
                    <path d="M30.3632812,0.12109375 C30.9882812,0.12109375 31.4238281,0.283203125 31.6699219,0.607421875 C31.9160156,0.931640625 32.0390625,1.265625 32.0390625,1.609375 L31.34375,1.609375 C31.3020833,1.38802083 31.2356771,1.21484375 31.1445312,1.08984375 C30.9752604,0.85546875 30.71875,0.73828125 30.375,0.73828125 C29.9817708,0.73828125 29.6692708,0.919921875 29.4375,1.28320312 C29.2057292,1.64648438 29.0768229,2.16666667 29.0507812,2.84375 C29.2122396,2.60677083 29.4153646,2.4296875 29.6601562,2.3125 C29.8841146,2.20833333 30.1341146,2.15625 30.4101562,2.15625 C30.8789062,2.15625 31.2877604,2.30598958 31.6367188,2.60546875 C31.9856771,2.90494792 32.1601562,3.3515625 32.1601562,3.9453125 C32.1601562,4.453125 31.9947917,4.90299479 31.6640625,5.29492188 C31.3333333,5.68684896 30.8619792,5.8828125 30.25,5.8828125 C29.7265625,5.8828125 29.2747396,5.68424479 28.8945312,5.28710938 C28.5143229,4.88997396 28.3242188,4.22135417 28.3242188,3.28125 C28.3242188,2.5859375 28.4088542,1.99609375 28.578125,1.51171875 C28.9036458,0.584635417 29.4986979,0.12109375 30.3632812,0.12109375 Z M30.3125,5.2578125 C30.6822917,5.2578125 30.9589844,5.13346354 31.1425781,4.88476562 C31.3261719,4.63606771 31.4179688,4.34244792 31.4179688,4.00390625 C31.4179688,3.71744792 31.3359375,3.44466146 31.171875,3.18554688 C31.0078125,2.92643229 30.7096354,2.796875 30.2773438,2.796875 C29.9752604,2.796875 29.7102865,2.89713542 29.4824219,3.09765625 C29.2545573,3.29817708 29.140625,3.60026042 29.140625,4.00390625 C29.140625,4.35807292 29.2441406,4.65559896 29.4511719,4.89648438 C29.6582031,5.13736979 29.9453125,5.2578125 30.3125,5.2578125 Z" id="Shape"></path>
                </g>
                <g id="#2D9596-Copy-2" transform="translate(333.297, 470)">
                    <path d="M0.1171875,3.546875 L1.02734375,3.546875 L1.39453125,2.203125 L0.48828125,2.203125 L0.609375,1.75 L1.515625,1.75 L1.98046875,0 L2.5625,0 L2.08984375,1.75 L2.953125,1.75 L3.43359375,0 L4.0078125,0 L3.53515625,1.75 L4.44140625,1.75 L4.3203125,2.203125 L3.4140625,2.203125 L3.04296875,3.546875 L3.953125,3.546875 L3.83203125,4 L2.93359375,4 L2.453125,5.73828125 L1.87890625,5.73828125 L2.3515625,4 L1.48046875,4 L1.015625,5.73828125 L0.43359375,5.73828125 L0.90625,4 L0,4 L0.1171875,3.546875 Z M2.4609375,3.546875 L2.83203125,2.203125 L1.96875,2.203125 L1.609375,3.546875 L2.4609375,3.546875 Z" id="Shape"></path>
                    <path d="M4.69921875,5.73828125 C4.72526042,5.25651042 4.82486979,4.83723958 4.99804688,4.48046875 C5.17122396,4.12369792 5.50911458,3.79947917 6.01171875,3.5078125 L6.76171875,3.07421875 C7.09765625,2.87890625 7.33333333,2.71223958 7.46875,2.57421875 C7.68229167,2.35807292 7.7890625,2.11067708 7.7890625,1.83203125 C7.7890625,1.50651042 7.69140625,1.24804688 7.49609375,1.05664062 C7.30078125,0.865234375 7.04036458,0.76953125 6.71484375,0.76953125 C6.23307292,0.76953125 5.89973958,0.951822917 5.71484375,1.31640625 C5.61588542,1.51171875 5.56119792,1.78255208 5.55078125,2.12890625 L4.8359375,2.12890625 C4.84375,1.64192708 4.93359375,1.24479167 5.10546875,0.9375 C5.41015625,0.395833333 5.94791667,0.125 6.71875,0.125 C7.359375,0.125 7.82747396,0.298177083 8.12304688,0.64453125 C8.41861979,0.990885417 8.56640625,1.37630208 8.56640625,1.80078125 C8.56640625,2.24869792 8.40885417,2.63151042 8.09375,2.94921875 C7.91145833,3.13411458 7.58463542,3.35807292 7.11328125,3.62109375 L6.578125,3.91796875 C6.32291667,4.05859375 6.12239583,4.19270833 5.9765625,4.3203125 C5.71614583,4.546875 5.55208333,4.79817708 5.484375,5.07421875 L8.5390625,5.07421875 L8.5390625,5.73828125 L4.69921875,5.73828125 Z" id="Path"></path>
                    <path d="M11.7109375,5.07421875 C11.9739583,5.07421875 12.1901042,5.046875 12.359375,4.9921875 C12.6614583,4.890625 12.9088542,4.6953125 13.1015625,4.40625 C13.2552083,4.17447917 13.3658854,3.87760417 13.4335938,3.515625 C13.4726562,3.29947917 13.4921875,3.09895833 13.4921875,2.9140625 C13.4921875,2.203125 13.3509115,1.65104167 13.0683594,1.2578125 C12.7858073,0.864583333 12.3307292,0.66796875 11.703125,0.66796875 L10.3242188,0.66796875 L10.3242188,5.07421875 L11.7109375,5.07421875 Z M9.54296875,0 L11.8671875,0 C12.65625,0 13.2682292,0.279947917 13.703125,0.83984375 C14.0911458,1.34505208 14.2851562,1.9921875 14.2851562,2.78125 C14.2851562,3.390625 14.1705729,3.94140625 13.9414062,4.43359375 C13.5377604,5.30338542 12.84375,5.73828125 11.859375,5.73828125 L9.54296875,5.73828125 L9.54296875,0 Z" id="Shape"></path>
                    <path d="M15.7382812,4.38671875 C15.7591146,4.77473958 15.9088542,5.04296875 16.1875,5.19140625 C16.3307292,5.26953125 16.4921875,5.30859375 16.671875,5.30859375 C17.0078125,5.30859375 17.2942708,5.16861979 17.53125,4.88867188 C17.7682292,4.60872396 17.9361979,4.04036458 18.0351562,3.18359375 C17.8789062,3.43098958 17.6855469,3.60481771 17.4550781,3.70507812 C17.2246094,3.80533854 16.9765625,3.85546875 16.7109375,3.85546875 C16.171875,3.85546875 15.7454427,3.6875 15.4316406,3.3515625 C15.1178385,3.015625 14.9609375,2.58333333 14.9609375,2.0546875 C14.9609375,1.546875 15.1158854,1.10026042 15.4257812,0.71484375 C15.7356771,0.329427083 16.1927083,0.13671875 16.796875,0.13671875 C17.6119792,0.13671875 18.1744792,0.50390625 18.484375,1.23828125 C18.65625,1.64192708 18.7421875,2.14713542 18.7421875,2.75390625 C18.7421875,3.43880208 18.6393229,4.04557292 18.4335938,4.57421875 C18.0924479,5.45442708 17.5143229,5.89453125 16.6992188,5.89453125 C16.1523438,5.89453125 15.7369792,5.75130208 15.453125,5.46484375 C15.1692708,5.17838542 15.0273438,4.81901042 15.0273438,4.38671875 L15.7382812,4.38671875 Z M16.8046875,3.23828125 C17.0833333,3.23828125 17.3378906,3.14648438 17.5683594,2.96289062 C17.7988281,2.77929688 17.9140625,2.45833333 17.9140625,2 C17.9140625,1.58854167 17.8105469,1.28190104 17.6035156,1.08007812 C17.3964844,0.878255208 17.1328125,0.77734375 16.8125,0.77734375 C16.46875,0.77734375 16.1959635,0.892578125 15.9941406,1.12304688 C15.7923177,1.35351562 15.6914062,1.66145833 15.6914062,2.046875 C15.6914062,2.41145833 15.7799479,2.70117188 15.9570312,2.91601562 C16.1341146,3.13085938 16.4166667,3.23828125 16.8046875,3.23828125 Z" id="Shape"></path>
                    <path d="M20.1132812,4.3125 C20.1601562,4.71354167 20.3463542,4.99088542 20.671875,5.14453125 C20.8385417,5.22265625 21.03125,5.26171875 21.25,5.26171875 C21.6666667,5.26171875 21.9752604,5.12890625 22.1757812,4.86328125 C22.3763021,4.59765625 22.4765625,4.30338542 22.4765625,3.98046875 C22.4765625,3.58984375 22.3574219,3.28776042 22.1191406,3.07421875 C21.8808594,2.86067708 21.5950521,2.75390625 21.2617188,2.75390625 C21.0195312,2.75390625 20.811849,2.80078125 20.6386719,2.89453125 C20.4654948,2.98828125 20.3177083,3.11848958 20.1953125,3.28515625 L19.5859375,3.25 L20.0117188,0.23828125 L22.9179688,0.23828125 L22.9179688,0.91796875 L20.5390625,0.91796875 L20.3007812,2.47265625 C20.4309896,2.37369792 20.5546875,2.29947917 20.671875,2.25 C20.8802083,2.1640625 21.1210938,2.12109375 21.3945312,2.12109375 C21.9075521,2.12109375 22.3424479,2.28645833 22.6992188,2.6171875 C23.0559896,2.94791667 23.234375,3.3671875 23.234375,3.875 C23.234375,4.40364583 23.0709635,4.86979167 22.7441406,5.2734375 C22.4173177,5.67708333 21.8958333,5.87890625 21.1796875,5.87890625 C20.7239583,5.87890625 20.3209635,5.75065104 19.9707031,5.49414062 C19.6204427,5.23763021 19.4244792,4.84375 19.3828125,4.3125 L20.1132812,4.3125 Z" id="Path"></path>
                    <path d="M24.6367188,4.38671875 C24.6575521,4.77473958 24.8072917,5.04296875 25.0859375,5.19140625 C25.2291667,5.26953125 25.390625,5.30859375 25.5703125,5.30859375 C25.90625,5.30859375 26.1927083,5.16861979 26.4296875,4.88867188 C26.6666667,4.60872396 26.8346354,4.04036458 26.9335938,3.18359375 C26.7773438,3.43098958 26.5839844,3.60481771 26.3535156,3.70507812 C26.1230469,3.80533854 25.875,3.85546875 25.609375,3.85546875 C25.0703125,3.85546875 24.6438802,3.6875 24.3300781,3.3515625 C24.016276,3.015625 23.859375,2.58333333 23.859375,2.0546875 C23.859375,1.546875 24.0143229,1.10026042 24.3242188,0.71484375 C24.6341146,0.329427083 25.0911458,0.13671875 25.6953125,0.13671875 C26.5104167,0.13671875 27.0729167,0.50390625 27.3828125,1.23828125 C27.5546875,1.64192708 27.640625,2.14713542 27.640625,2.75390625 C27.640625,3.43880208 27.5377604,4.04557292 27.3320312,4.57421875 C26.9908854,5.45442708 26.4127604,5.89453125 25.5976562,5.89453125 C25.0507812,5.89453125 24.6354167,5.75130208 24.3515625,5.46484375 C24.0677083,5.17838542 23.9257812,4.81901042 23.9257812,4.38671875 L24.6367188,4.38671875 Z M25.703125,3.23828125 C25.9817708,3.23828125 26.2363281,3.14648438 26.4667969,2.96289062 C26.6972656,2.77929688 26.8125,2.45833333 26.8125,2 C26.8125,1.58854167 26.7089844,1.28190104 26.5019531,1.08007812 C26.2949219,0.878255208 26.03125,0.77734375 25.7109375,0.77734375 C25.3671875,0.77734375 25.094401,0.892578125 24.8925781,1.12304688 C24.6907552,1.35351562 24.5898438,1.66145833 24.5898438,2.046875 C24.5898438,2.41145833 24.6783854,2.70117188 24.8554688,2.91601562 C25.0325521,3.13085938 25.3151042,3.23828125 25.703125,3.23828125 Z" id="Shape"></path>
                    <path d="M30.3632812,0.12109375 C30.9882812,0.12109375 31.4238281,0.283203125 31.6699219,0.607421875 C31.9160156,0.931640625 32.0390625,1.265625 32.0390625,1.609375 L31.34375,1.609375 C31.3020833,1.38802083 31.2356771,1.21484375 31.1445312,1.08984375 C30.9752604,0.85546875 30.71875,0.73828125 30.375,0.73828125 C29.9817708,0.73828125 29.6692708,0.919921875 29.4375,1.28320312 C29.2057292,1.64648438 29.0768229,2.16666667 29.0507812,2.84375 C29.2122396,2.60677083 29.4153646,2.4296875 29.6601562,2.3125 C29.8841146,2.20833333 30.1341146,2.15625 30.4101562,2.15625 C30.8789062,2.15625 31.2877604,2.30598958 31.6367188,2.60546875 C31.9856771,2.90494792 32.1601562,3.3515625 32.1601562,3.9453125 C32.1601562,4.453125 31.9947917,4.90299479 31.6640625,5.29492188 C31.3333333,5.68684896 30.8619792,5.8828125 30.25,5.8828125 C29.7265625,5.8828125 29.2747396,5.68424479 28.8945312,5.28710938 C28.5143229,4.88997396 28.3242188,4.22135417 28.3242188,3.28125 C28.3242188,2.5859375 28.4088542,1.99609375 28.578125,1.51171875 C28.9036458,0.584635417 29.4986979,0.12109375 30.3632812,0.12109375 Z M30.3125,5.2578125 C30.6822917,5.2578125 30.9589844,5.13346354 31.1425781,4.88476562 C31.3261719,4.63606771 31.4179688,4.34244792 31.4179688,4.00390625 C31.4179688,3.71744792 31.3359375,3.44466146 31.171875,3.18554688 C31.0078125,2.92643229 30.7096354,2.796875 30.2773438,2.796875 C29.9752604,2.796875 29.7102865,2.89713542 29.4824219,3.09765625 C29.2545573,3.29817708 29.140625,3.60026042 29.140625,4.00390625 C29.140625,4.35807292 29.2441406,4.65559896 29.4511719,4.89648438 C29.6582031,5.13736979 29.9453125,5.2578125 30.3125,5.2578125 Z" id="Shape"></path>
                </g>
                <g id="#2D9596-Copy-3" transform="translate(185.297, 415)">
                    <path d="M0.1171875,3.546875 L1.02734375,3.546875 L1.39453125,2.203125 L0.48828125,2.203125 L0.609375,1.75 L1.515625,1.75 L1.98046875,0 L2.5625,0 L2.08984375,1.75 L2.953125,1.75 L3.43359375,0 L4.0078125,0 L3.53515625,1.75 L4.44140625,1.75 L4.3203125,2.203125 L3.4140625,2.203125 L3.04296875,3.546875 L3.953125,3.546875 L3.83203125,4 L2.93359375,4 L2.453125,5.73828125 L1.87890625,5.73828125 L2.3515625,4 L1.48046875,4 L1.015625,5.73828125 L0.43359375,5.73828125 L0.90625,4 L0,4 L0.1171875,3.546875 Z M2.4609375,3.546875 L2.83203125,2.203125 L1.96875,2.203125 L1.609375,3.546875 L2.4609375,3.546875 Z" id="Shape"></path>
                    <path d="M4.69921875,5.73828125 C4.72526042,5.25651042 4.82486979,4.83723958 4.99804688,4.48046875 C5.17122396,4.12369792 5.50911458,3.79947917 6.01171875,3.5078125 L6.76171875,3.07421875 C7.09765625,2.87890625 7.33333333,2.71223958 7.46875,2.57421875 C7.68229167,2.35807292 7.7890625,2.11067708 7.7890625,1.83203125 C7.7890625,1.50651042 7.69140625,1.24804688 7.49609375,1.05664062 C7.30078125,0.865234375 7.04036458,0.76953125 6.71484375,0.76953125 C6.23307292,0.76953125 5.89973958,0.951822917 5.71484375,1.31640625 C5.61588542,1.51171875 5.56119792,1.78255208 5.55078125,2.12890625 L4.8359375,2.12890625 C4.84375,1.64192708 4.93359375,1.24479167 5.10546875,0.9375 C5.41015625,0.395833333 5.94791667,0.125 6.71875,0.125 C7.359375,0.125 7.82747396,0.298177083 8.12304688,0.64453125 C8.41861979,0.990885417 8.56640625,1.37630208 8.56640625,1.80078125 C8.56640625,2.24869792 8.40885417,2.63151042 8.09375,2.94921875 C7.91145833,3.13411458 7.58463542,3.35807292 7.11328125,3.62109375 L6.578125,3.91796875 C6.32291667,4.05859375 6.12239583,4.19270833 5.9765625,4.3203125 C5.71614583,4.546875 5.55208333,4.79817708 5.484375,5.07421875 L8.5390625,5.07421875 L8.5390625,5.73828125 L4.69921875,5.73828125 Z" id="Path"></path>
                    <path d="M11.7109375,5.07421875 C11.9739583,5.07421875 12.1901042,5.046875 12.359375,4.9921875 C12.6614583,4.890625 12.9088542,4.6953125 13.1015625,4.40625 C13.2552083,4.17447917 13.3658854,3.87760417 13.4335938,3.515625 C13.4726562,3.29947917 13.4921875,3.09895833 13.4921875,2.9140625 C13.4921875,2.203125 13.3509115,1.65104167 13.0683594,1.2578125 C12.7858073,0.864583333 12.3307292,0.66796875 11.703125,0.66796875 L10.3242188,0.66796875 L10.3242188,5.07421875 L11.7109375,5.07421875 Z M9.54296875,0 L11.8671875,0 C12.65625,0 13.2682292,0.279947917 13.703125,0.83984375 C14.0911458,1.34505208 14.2851562,1.9921875 14.2851562,2.78125 C14.2851562,3.390625 14.1705729,3.94140625 13.9414062,4.43359375 C13.5377604,5.30338542 12.84375,5.73828125 11.859375,5.73828125 L9.54296875,5.73828125 L9.54296875,0 Z" id="Shape"></path>
                    <path d="M15.7382812,4.38671875 C15.7591146,4.77473958 15.9088542,5.04296875 16.1875,5.19140625 C16.3307292,5.26953125 16.4921875,5.30859375 16.671875,5.30859375 C17.0078125,5.30859375 17.2942708,5.16861979 17.53125,4.88867188 C17.7682292,4.60872396 17.9361979,4.04036458 18.0351562,3.18359375 C17.8789062,3.43098958 17.6855469,3.60481771 17.4550781,3.70507812 C17.2246094,3.80533854 16.9765625,3.85546875 16.7109375,3.85546875 C16.171875,3.85546875 15.7454427,3.6875 15.4316406,3.3515625 C15.1178385,3.015625 14.9609375,2.58333333 14.9609375,2.0546875 C14.9609375,1.546875 15.1158854,1.10026042 15.4257812,0.71484375 C15.7356771,0.329427083 16.1927083,0.13671875 16.796875,0.13671875 C17.6119792,0.13671875 18.1744792,0.50390625 18.484375,1.23828125 C18.65625,1.64192708 18.7421875,2.14713542 18.7421875,2.75390625 C18.7421875,3.43880208 18.6393229,4.04557292 18.4335938,4.57421875 C18.0924479,5.45442708 17.5143229,5.89453125 16.6992188,5.89453125 C16.1523438,5.89453125 15.7369792,5.75130208 15.453125,5.46484375 C15.1692708,5.17838542 15.0273438,4.81901042 15.0273438,4.38671875 L15.7382812,4.38671875 Z M16.8046875,3.23828125 C17.0833333,3.23828125 17.3378906,3.14648438 17.5683594,2.96289062 C17.7988281,2.77929688 17.9140625,2.45833333 17.9140625,2 C17.9140625,1.58854167 17.8105469,1.28190104 17.6035156,1.08007812 C17.3964844,0.878255208 17.1328125,0.77734375 16.8125,0.77734375 C16.46875,0.77734375 16.1959635,0.892578125 15.9941406,1.12304688 C15.7923177,1.35351562 15.6914062,1.66145833 15.6914062,2.046875 C15.6914062,2.41145833 15.7799479,2.70117188 15.9570312,2.91601562 C16.1341146,3.13085938 16.4166667,3.23828125 16.8046875,3.23828125 Z" id="Shape"></path>
                    <path d="M20.1132812,4.3125 C20.1601562,4.71354167 20.3463542,4.99088542 20.671875,5.14453125 C20.8385417,5.22265625 21.03125,5.26171875 21.25,5.26171875 C21.6666667,5.26171875 21.9752604,5.12890625 22.1757812,4.86328125 C22.3763021,4.59765625 22.4765625,4.30338542 22.4765625,3.98046875 C22.4765625,3.58984375 22.3574219,3.28776042 22.1191406,3.07421875 C21.8808594,2.86067708 21.5950521,2.75390625 21.2617188,2.75390625 C21.0195312,2.75390625 20.811849,2.80078125 20.6386719,2.89453125 C20.4654948,2.98828125 20.3177083,3.11848958 20.1953125,3.28515625 L19.5859375,3.25 L20.0117188,0.23828125 L22.9179688,0.23828125 L22.9179688,0.91796875 L20.5390625,0.91796875 L20.3007812,2.47265625 C20.4309896,2.37369792 20.5546875,2.29947917 20.671875,2.25 C20.8802083,2.1640625 21.1210938,2.12109375 21.3945312,2.12109375 C21.9075521,2.12109375 22.3424479,2.28645833 22.6992188,2.6171875 C23.0559896,2.94791667 23.234375,3.3671875 23.234375,3.875 C23.234375,4.40364583 23.0709635,4.86979167 22.7441406,5.2734375 C22.4173177,5.67708333 21.8958333,5.87890625 21.1796875,5.87890625 C20.7239583,5.87890625 20.3209635,5.75065104 19.9707031,5.49414062 C19.6204427,5.23763021 19.4244792,4.84375 19.3828125,4.3125 L20.1132812,4.3125 Z" id="Path"></path>
                    <path d="M24.6367188,4.38671875 C24.6575521,4.77473958 24.8072917,5.04296875 25.0859375,5.19140625 C25.2291667,5.26953125 25.390625,5.30859375 25.5703125,5.30859375 C25.90625,5.30859375 26.1927083,5.16861979 26.4296875,4.88867188 C26.6666667,4.60872396 26.8346354,4.04036458 26.9335938,3.18359375 C26.7773438,3.43098958 26.5839844,3.60481771 26.3535156,3.70507812 C26.1230469,3.80533854 25.875,3.85546875 25.609375,3.85546875 C25.0703125,3.85546875 24.6438802,3.6875 24.3300781,3.3515625 C24.016276,3.015625 23.859375,2.58333333 23.859375,2.0546875 C23.859375,1.546875 24.0143229,1.10026042 24.3242188,0.71484375 C24.6341146,0.329427083 25.0911458,0.13671875 25.6953125,0.13671875 C26.5104167,0.13671875 27.0729167,0.50390625 27.3828125,1.23828125 C27.5546875,1.64192708 27.640625,2.14713542 27.640625,2.75390625 C27.640625,3.43880208 27.5377604,4.04557292 27.3320312,4.57421875 C26.9908854,5.45442708 26.4127604,5.89453125 25.5976562,5.89453125 C25.0507812,5.89453125 24.6354167,5.75130208 24.3515625,5.46484375 C24.0677083,5.17838542 23.9257812,4.81901042 23.9257812,4.38671875 L24.6367188,4.38671875 Z M25.703125,3.23828125 C25.9817708,3.23828125 26.2363281,3.14648438 26.4667969,2.96289062 C26.6972656,2.77929688 26.8125,2.45833333 26.8125,2 C26.8125,1.58854167 26.7089844,1.28190104 26.5019531,1.08007812 C26.2949219,0.878255208 26.03125,0.77734375 25.7109375,0.77734375 C25.3671875,0.77734375 25.094401,0.892578125 24.8925781,1.12304688 C24.6907552,1.35351562 24.5898438,1.66145833 24.5898438,2.046875 C24.5898438,2.41145833 24.6783854,2.70117188 24.8554688,2.91601562 C25.0325521,3.13085938 25.3151042,3.23828125 25.703125,3.23828125 Z" id="Shape"></path>
                    <path d="M30.3632812,0.12109375 C30.9882812,0.12109375 31.4238281,0.283203125 31.6699219,0.607421875 C31.9160156,0.931640625 32.0390625,1.265625 32.0390625,1.609375 L31.34375,1.609375 C31.3020833,1.38802083 31.2356771,1.21484375 31.1445312,1.08984375 C30.9752604,0.85546875 30.71875,0.73828125 30.375,0.73828125 C29.9817708,0.73828125 29.6692708,0.919921875 29.4375,1.28320312 C29.2057292,1.64648438 29.0768229,2.16666667 29.0507812,2.84375 C29.2122396,2.60677083 29.4153646,2.4296875 29.6601562,2.3125 C29.8841146,2.20833333 30.1341146,2.15625 30.4101562,2.15625 C30.8789062,2.15625 31.2877604,2.30598958 31.6367188,2.60546875 C31.9856771,2.90494792 32.1601562,3.3515625 32.1601562,3.9453125 C32.1601562,4.453125 31.9947917,4.90299479 31.6640625,5.29492188 C31.3333333,5.68684896 30.8619792,5.8828125 30.25,5.8828125 C29.7265625,5.8828125 29.2747396,5.68424479 28.8945312,5.28710938 C28.5143229,4.88997396 28.3242188,4.22135417 28.3242188,3.28125 C28.3242188,2.5859375 28.4088542,1.99609375 28.578125,1.51171875 C28.9036458,0.584635417 29.4986979,0.12109375 30.3632812,0.12109375 Z M30.3125,5.2578125 C30.6822917,5.2578125 30.9589844,5.13346354 31.1425781,4.88476562 C31.3261719,4.63606771 31.4179688,4.34244792 31.4179688,4.00390625 C31.4179688,3.71744792 31.3359375,3.44466146 31.171875,3.18554688 C31.0078125,2.92643229 30.7096354,2.796875 30.2773438,2.796875 C29.9752604,2.796875 29.7102865,2.89713542 29.4824219,3.09765625 C29.2545573,3.29817708 29.140625,3.60026042 29.140625,4.00390625 C29.140625,4.35807292 29.2441406,4.65559896 29.4511719,4.89648438 C29.6582031,5.13736979 29.9453125,5.2578125 30.3125,5.2578125 Z" id="Shape"></path>
                </g>
                <g id="#265073" transform="translate(10.2499, 258.7144) rotate(60) translate(-10.2499, -258.7144)translate(-5.1485, 255.7691)">
                    <path d="M0.1171875,3.546875 L1.02734375,3.546875 L1.39453125,2.203125 L0.48828125,2.203125 L0.609375,1.75 L1.515625,1.75 L1.98046875,3.58384714e-14 L2.5625,3.58384714e-14 L2.08984375,1.75 L2.953125,1.75 L3.43359375,3.58384714e-14 L4.0078125,3.58384714e-14 L3.53515625,1.75 L4.44140625,1.75 L4.3203125,2.203125 L3.4140625,2.203125 L3.04296875,3.546875 L3.953125,3.546875 L3.83203125,4 L2.93359375,4 L2.453125,5.73828125 L1.87890625,5.73828125 L2.3515625,4 L1.48046875,4 L1.015625,5.73828125 L0.43359375,5.73828125 L0.90625,4 L5.61453097e-15,4 L0.1171875,3.546875 Z M2.4609375,3.546875 L2.83203125,2.203125 L1.96875,2.203125 L1.609375,3.546875 L2.4609375,3.546875 Z" id="Shape"></path>
                    <path d="M4.69921875,5.73828125 C4.72526042,5.25651042 4.82486979,4.83723958 4.99804688,4.48046875 C5.17122396,4.12369792 5.50911458,3.79947917 6.01171875,3.5078125 L6.76171875,3.07421875 C7.09765625,2.87890625 7.33333333,2.71223958 7.46875,2.57421875 C7.68229167,2.35807292 7.7890625,2.11067708 7.7890625,1.83203125 C7.7890625,1.50651042 7.69140625,1.24804687 7.49609375,1.05664062 C7.30078125,0.865234375 7.04036458,0.76953125 6.71484375,0.76953125 C6.23307292,0.76953125 5.89973958,0.951822917 5.71484375,1.31640625 C5.61588542,1.51171875 5.56119792,1.78255208 5.55078125,2.12890625 L4.8359375,2.12890625 C4.84375,1.64192708 4.93359375,1.24479167 5.10546875,0.9375 C5.41015625,0.395833333 5.94791667,0.125 6.71875,0.125 C7.359375,0.125 7.82747396,0.298177083 8.12304688,0.64453125 C8.41861979,0.990885417 8.56640625,1.37630208 8.56640625,1.80078125 C8.56640625,2.24869792 8.40885417,2.63151042 8.09375,2.94921875 C7.91145833,3.13411458 7.58463542,3.35807292 7.11328125,3.62109375 L6.578125,3.91796875 C6.32291667,4.05859375 6.12239583,4.19270833 5.9765625,4.3203125 C5.71614583,4.546875 5.55208333,4.79817708 5.484375,5.07421875 L8.5390625,5.07421875 L8.5390625,5.73828125 L4.69921875,5.73828125 Z" id="Path"></path>
                    <path d="M11.2382813,0.12109375 C11.8632813,0.12109375 12.2988281,0.283203125 12.5449219,0.607421875 C12.7910156,0.931640625 12.9140625,1.265625 12.9140625,1.609375 L12.21875,1.609375 C12.1770833,1.38802083 12.1106771,1.21484375 12.0195313,1.08984375 C11.8502604,0.85546875 11.59375,0.73828125 11.25,0.73828125 C10.8567708,0.73828125 10.5442708,0.919921875 10.3125,1.28320312 C10.0807292,1.64648437 9.95182292,2.16666667 9.92578125,2.84375 C10.0872396,2.60677083 10.2903646,2.4296875 10.5351563,2.3125 C10.7591146,2.20833333 11.0091146,2.15625 11.2851563,2.15625 C11.7539063,2.15625 12.1627604,2.30598958 12.5117188,2.60546875 C12.8606771,2.90494792 13.0351563,3.3515625 13.0351563,3.9453125 C13.0351563,4.453125 12.8697917,4.90299479 12.5390625,5.29492187 C12.2083333,5.68684896 11.7369792,5.8828125 11.125,5.8828125 C10.6015625,5.8828125 10.1497396,5.68424479 9.76953125,5.28710937 C9.38932292,4.88997396 9.19921875,4.22135417 9.19921875,3.28125 C9.19921875,2.5859375 9.28385417,1.99609375 9.453125,1.51171875 C9.77864583,0.584635417 10.3736979,0.12109375 11.2382813,0.12109375 Z M11.1875,5.2578125 C11.5572917,5.2578125 11.8339844,5.13346354 12.0175781,4.88476562 C12.2011719,4.63606771 12.2929688,4.34244792 12.2929688,4.00390625 C12.2929688,3.71744792 12.2109375,3.44466146 12.046875,3.18554687 C11.8828125,2.92643229 11.5846354,2.796875 11.1523438,2.796875 C10.8502604,2.796875 10.5852865,2.89713542 10.3574219,3.09765625 C10.1295573,3.29817708 10.015625,3.60026042 10.015625,4.00390625 C10.015625,4.35807292 10.1191406,4.65559896 10.3261719,4.89648437 C10.5332031,5.13736979 10.8203125,5.2578125 11.1875,5.2578125 Z" id="Shape"></path>
                    <path d="M14.3359375,4.3125 C14.3828125,4.71354167 14.5690104,4.99088542 14.8945313,5.14453125 C15.0611979,5.22265625 15.2539063,5.26171875 15.4726563,5.26171875 C15.8893229,5.26171875 16.1979167,5.12890625 16.3984375,4.86328125 C16.5989583,4.59765625 16.6992188,4.30338542 16.6992188,3.98046875 C16.6992188,3.58984375 16.5800781,3.28776042 16.3417969,3.07421875 C16.1035156,2.86067708 15.8177083,2.75390625 15.484375,2.75390625 C15.2421875,2.75390625 15.0345052,2.80078125 14.8613281,2.89453125 C14.688151,2.98828125 14.5403646,3.11848958 14.4179688,3.28515625 L13.8085938,3.25 L14.234375,0.23828125 L17.140625,0.23828125 L17.140625,0.91796875 L14.7617188,0.91796875 L14.5234375,2.47265625 C14.6536458,2.37369792 14.7773438,2.29947917 14.8945313,2.25 C15.1028646,2.1640625 15.34375,2.12109375 15.6171875,2.12109375 C16.1302083,2.12109375 16.5651042,2.28645833 16.921875,2.6171875 C17.2786458,2.94791667 17.4570313,3.3671875 17.4570313,3.875 C17.4570313,4.40364583 17.2936198,4.86979167 16.9667969,5.2734375 C16.639974,5.67708333 16.1184896,5.87890625 15.4023438,5.87890625 C14.9466146,5.87890625 14.5436198,5.75065104 14.1933594,5.49414062 C13.843099,5.23763021 13.6471354,4.84375 13.6054688,4.3125 L14.3359375,4.3125 Z" id="Path"></path>
                    <path d="M19.9609375,0.14453125 C20.6848958,0.14453125 21.2083333,0.442708333 21.53125,1.0390625 C21.78125,1.5 21.90625,2.13151042 21.90625,2.93359375 C21.90625,3.69401042 21.7929687,4.32291667 21.5664062,4.8203125 C21.2382812,5.53385417 20.7018229,5.890625 19.9570312,5.890625 C19.2851562,5.890625 18.7851562,5.59895833 18.4570312,5.015625 C18.1835937,4.52864583 18.046875,3.875 18.046875,3.0546875 C18.046875,2.41927083 18.1289062,1.87369792 18.2929687,1.41796875 C18.6002604,0.569010417 19.15625,0.14453125 19.9609375,0.14453125 Z M19.953125,5.25 C20.3177083,5.25 20.6080729,5.08854167 20.8242187,4.765625 C21.0403646,4.44270833 21.1484375,3.84114583 21.1484375,2.9609375 C21.1484375,2.32552083 21.0703125,1.80273437 20.9140625,1.39257812 C20.7578125,0.982421875 20.4544271,0.77734375 20.0039062,0.77734375 C19.5898437,0.77734375 19.2871094,0.972005208 19.0957031,1.36132812 C18.9042969,1.75065104 18.8085937,2.32421875 18.8085937,3.08203125 C18.8085937,3.65234375 18.8697917,4.11067708 18.9921875,4.45703125 C19.1796875,4.98567708 19.5,5.25 19.953125,5.25 Z" id="Shape"></path>
                    <path d="M26.4296875,0.23828125 L26.4296875,0.8515625 C26.25,1.02604167 26.0110677,1.32942708 25.7128906,1.76171875 C25.4147135,2.19401042 25.1510417,2.66015625 24.921875,3.16015625 C24.6953125,3.64713542 24.5234375,4.09114583 24.40625,4.4921875 C24.3307292,4.75 24.2330729,5.16536458 24.1132813,5.73828125 L23.3359375,5.73828125 C23.5130208,4.67057292 23.9036458,3.60807292 24.5078125,2.55078125 C24.8645833,1.93098958 25.2395833,1.39583333 25.6328125,0.9453125 L22.5390625,0.9453125 L22.5390625,0.23828125 L26.4296875,0.23828125 Z" id="Path"></path>
                    <path d="M28.7734375,5.890625 C28.1119792,5.890625 27.6321615,5.70898438 27.3339844,5.34570313 C27.0358073,4.98242188 26.8867188,4.54036458 26.8867188,4.01953125 L27.6210938,4.01953125 C27.6523438,4.38151042 27.7200521,4.64453125 27.8242188,4.80859375 C28.0065104,5.10286458 28.3359375,5.25 28.8125,5.25 C29.1822917,5.25 29.4791667,5.15104167 29.703125,4.953125 C29.9270833,4.75520833 30.0390625,4.5 30.0390625,4.1875 C30.0390625,3.80208333 29.921224,3.53255208 29.6855469,3.37890625 C29.4498698,3.22526042 29.1223958,3.1484375 28.703125,3.1484375 C28.65625,3.1484375 28.608724,3.14908854 28.5605469,3.15039063 C28.5123698,3.15169271 28.4635417,3.15364583 28.4140625,3.15625 L28.4140625,2.53515625 C28.4869792,2.54296875 28.5481771,2.54817708 28.5976563,2.55078125 C28.6471354,2.55338542 28.7005208,2.5546875 28.7578125,2.5546875 C29.0208333,2.5546875 29.2369792,2.51302083 29.40625,2.4296875 C29.703125,2.28385417 29.8515625,2.0234375 29.8515625,1.6484375 C29.8515625,1.36979167 29.7526042,1.15494792 29.5546875,1.00390625 C29.3567708,0.852864583 29.1263021,0.77734375 28.8632813,0.77734375 C28.3945313,0.77734375 28.0703125,0.93359375 27.890625,1.24609375 C27.7916667,1.41796875 27.7356771,1.66276042 27.7226563,1.98046875 L27.0273438,1.98046875 C27.0273438,1.56380208 27.1106771,1.20963542 27.2773438,0.91796875 C27.5638021,0.397135417 28.0677083,0.13671875 28.7890625,0.13671875 C29.359375,0.13671875 29.8007813,0.263671875 30.1132813,0.517578125 C30.4257813,0.771484375 30.5820313,1.13932292 30.5820313,1.62109375 C30.5820313,1.96484375 30.4895833,2.24348958 30.3046875,2.45703125 C30.1901042,2.58984375 30.0416667,2.69401042 29.859375,2.76953125 C30.1536458,2.85026042 30.3834635,3.00585938 30.5488281,3.23632813 C30.7141927,3.46679688 30.796875,3.74869792 30.796875,4.08203125 C30.796875,4.61588542 30.6210938,5.05078125 30.2695313,5.38671875 C29.9179688,5.72265625 29.4192708,5.890625 28.7734375,5.890625 Z" id="Path"></path>
                </g>
                <g id="#265073-copy" transform="translate(199.2499, 258.7144) rotate(60) translate(-199.2499, -258.7144)translate(183.8515, 255.7691)">
                    <path d="M0.1171875,3.546875 L1.02734375,3.546875 L1.39453125,2.203125 L0.48828125,2.203125 L0.609375,1.75 L1.515625,1.75 L1.98046875,3.58384714e-14 L2.5625,3.58384714e-14 L2.08984375,1.75 L2.953125,1.75 L3.43359375,3.58384714e-14 L4.0078125,3.58384714e-14 L3.53515625,1.75 L4.44140625,1.75 L4.3203125,2.203125 L3.4140625,2.203125 L3.04296875,3.546875 L3.953125,3.546875 L3.83203125,4 L2.93359375,4 L2.453125,5.73828125 L1.87890625,5.73828125 L2.3515625,4 L1.48046875,4 L1.015625,5.73828125 L0.43359375,5.73828125 L0.90625,4 L3.38512696e-13,4 L0.1171875,3.546875 Z M2.4609375,3.546875 L2.83203125,2.203125 L1.96875,2.203125 L1.609375,3.546875 L2.4609375,3.546875 Z" id="Shape"></path>
                    <path d="M4.69921875,5.73828125 C4.72526042,5.25651042 4.82486979,4.83723958 4.99804688,4.48046875 C5.17122396,4.12369792 5.50911458,3.79947917 6.01171875,3.5078125 L6.76171875,3.07421875 C7.09765625,2.87890625 7.33333333,2.71223958 7.46875,2.57421875 C7.68229167,2.35807292 7.7890625,2.11067708 7.7890625,1.83203125 C7.7890625,1.50651042 7.69140625,1.24804687 7.49609375,1.05664062 C7.30078125,0.865234375 7.04036458,0.76953125 6.71484375,0.76953125 C6.23307292,0.76953125 5.89973958,0.951822917 5.71484375,1.31640625 C5.61588542,1.51171875 5.56119792,1.78255208 5.55078125,2.12890625 L4.8359375,2.12890625 C4.84375,1.64192708 4.93359375,1.24479167 5.10546875,0.9375 C5.41015625,0.395833333 5.94791667,0.125 6.71875,0.125 C7.359375,0.125 7.82747396,0.298177083 8.12304688,0.64453125 C8.41861979,0.990885417 8.56640625,1.37630208 8.56640625,1.80078125 C8.56640625,2.24869792 8.40885417,2.63151042 8.09375,2.94921875 C7.91145833,3.13411458 7.58463542,3.35807292 7.11328125,3.62109375 L6.578125,3.91796875 C6.32291667,4.05859375 6.12239583,4.19270833 5.9765625,4.3203125 C5.71614583,4.546875 5.55208333,4.79817708 5.484375,5.07421875 L8.5390625,5.07421875 L8.5390625,5.73828125 L4.69921875,5.73828125 Z" id="Path"></path>
                    <path d="M11.2382813,0.12109375 C11.8632813,0.12109375 12.2988281,0.283203125 12.5449219,0.607421875 C12.7910156,0.931640625 12.9140625,1.265625 12.9140625,1.609375 L12.21875,1.609375 C12.1770833,1.38802083 12.1106771,1.21484375 12.0195313,1.08984375 C11.8502604,0.85546875 11.59375,0.73828125 11.25,0.73828125 C10.8567708,0.73828125 10.5442708,0.919921875 10.3125,1.28320312 C10.0807292,1.64648437 9.95182292,2.16666667 9.92578125,2.84375 C10.0872396,2.60677083 10.2903646,2.4296875 10.5351563,2.3125 C10.7591146,2.20833333 11.0091146,2.15625 11.2851563,2.15625 C11.7539063,2.15625 12.1627604,2.30598958 12.5117188,2.60546875 C12.8606771,2.90494792 13.0351563,3.3515625 13.0351563,3.9453125 C13.0351563,4.453125 12.8697917,4.90299479 12.5390625,5.29492187 C12.2083333,5.68684896 11.7369792,5.8828125 11.125,5.8828125 C10.6015625,5.8828125 10.1497396,5.68424479 9.76953125,5.28710937 C9.38932292,4.88997396 9.19921875,4.22135417 9.19921875,3.28125 C9.19921875,2.5859375 9.28385417,1.99609375 9.453125,1.51171875 C9.77864583,0.584635417 10.3736979,0.12109375 11.2382813,0.12109375 Z M11.1875,5.2578125 C11.5572917,5.2578125 11.8339844,5.13346354 12.0175781,4.88476562 C12.2011719,4.63606771 12.2929688,4.34244792 12.2929688,4.00390625 C12.2929688,3.71744792 12.2109375,3.44466146 12.046875,3.18554687 C11.8828125,2.92643229 11.5846354,2.796875 11.1523438,2.796875 C10.8502604,2.796875 10.5852865,2.89713542 10.3574219,3.09765625 C10.1295573,3.29817708 10.015625,3.60026042 10.015625,4.00390625 C10.015625,4.35807292 10.1191406,4.65559896 10.3261719,4.89648437 C10.5332031,5.13736979 10.8203125,5.2578125 11.1875,5.2578125 Z" id="Shape"></path>
                    <path d="M14.3359375,4.3125 C14.3828125,4.71354167 14.5690104,4.99088542 14.8945313,5.14453125 C15.0611979,5.22265625 15.2539063,5.26171875 15.4726563,5.26171875 C15.8893229,5.26171875 16.1979167,5.12890625 16.3984375,4.86328125 C16.5989583,4.59765625 16.6992188,4.30338542 16.6992188,3.98046875 C16.6992188,3.58984375 16.5800781,3.28776042 16.3417969,3.07421875 C16.1035156,2.86067708 15.8177083,2.75390625 15.484375,2.75390625 C15.2421875,2.75390625 15.0345052,2.80078125 14.8613281,2.89453125 C14.688151,2.98828125 14.5403646,3.11848958 14.4179688,3.28515625 L13.8085938,3.25 L14.234375,0.23828125 L17.140625,0.23828125 L17.140625,0.91796875 L14.7617188,0.91796875 L14.5234375,2.47265625 C14.6536458,2.37369792 14.7773438,2.29947917 14.8945313,2.25 C15.1028646,2.1640625 15.34375,2.12109375 15.6171875,2.12109375 C16.1302083,2.12109375 16.5651042,2.28645833 16.921875,2.6171875 C17.2786458,2.94791667 17.4570313,3.3671875 17.4570313,3.875 C17.4570313,4.40364583 17.2936198,4.86979167 16.9667969,5.2734375 C16.639974,5.67708333 16.1184896,5.87890625 15.4023438,5.87890625 C14.9466146,5.87890625 14.5436198,5.75065104 14.1933594,5.49414062 C13.843099,5.23763021 13.6471354,4.84375 13.6054688,4.3125 L14.3359375,4.3125 Z" id="Path"></path>
                    <path d="M19.9609375,0.14453125 C20.6848958,0.14453125 21.2083333,0.442708333 21.53125,1.0390625 C21.78125,1.5 21.90625,2.13151042 21.90625,2.93359375 C21.90625,3.69401042 21.7929688,4.32291667 21.5664063,4.8203125 C21.2382813,5.53385417 20.7018229,5.890625 19.9570313,5.890625 C19.2851563,5.890625 18.7851563,5.59895833 18.4570313,5.015625 C18.1835938,4.52864583 18.046875,3.875 18.046875,3.0546875 C18.046875,2.41927083 18.1289063,1.87369792 18.2929688,1.41796875 C18.6002604,0.569010417 19.15625,0.14453125 19.9609375,0.14453125 Z M19.953125,5.25 C20.3177083,5.25 20.6080729,5.08854167 20.8242188,4.765625 C21.0403646,4.44270833 21.1484375,3.84114583 21.1484375,2.9609375 C21.1484375,2.32552083 21.0703125,1.80273437 20.9140625,1.39257812 C20.7578125,0.982421875 20.4544271,0.77734375 20.0039063,0.77734375 C19.5898438,0.77734375 19.2871094,0.972005208 19.0957031,1.36132812 C18.9042969,1.75065104 18.8085938,2.32421875 18.8085938,3.08203125 C18.8085938,3.65234375 18.8697917,4.11067708 18.9921875,4.45703125 C19.1796875,4.98567708 19.5,5.25 19.953125,5.25 Z" id="Shape"></path>
                    <path d="M26.4296875,0.23828125 L26.4296875,0.8515625 C26.25,1.02604167 26.0110677,1.32942708 25.7128906,1.76171875 C25.4147135,2.19401042 25.1510417,2.66015625 24.921875,3.16015625 C24.6953125,3.64713542 24.5234375,4.09114583 24.40625,4.4921875 C24.3307292,4.75 24.2330729,5.16536458 24.1132813,5.73828125 L23.3359375,5.73828125 C23.5130208,4.67057292 23.9036458,3.60807292 24.5078125,2.55078125 C24.8645833,1.93098958 25.2395833,1.39583333 25.6328125,0.9453125 L22.5390625,0.9453125 L22.5390625,0.23828125 L26.4296875,0.23828125 Z" id="Path"></path>
                    <path d="M28.7734375,5.890625 C28.1119792,5.890625 27.6321615,5.70898437 27.3339844,5.34570312 C27.0358073,4.98242187 26.8867187,4.54036458 26.8867187,4.01953125 L27.6210937,4.01953125 C27.6523437,4.38151042 27.7200521,4.64453125 27.8242187,4.80859375 C28.0065104,5.10286458 28.3359375,5.25 28.8125,5.25 C29.1822917,5.25 29.4791667,5.15104167 29.703125,4.953125 C29.9270833,4.75520833 30.0390625,4.5 30.0390625,4.1875 C30.0390625,3.80208333 29.921224,3.53255208 29.6855469,3.37890625 C29.4498698,3.22526042 29.1223958,3.1484375 28.703125,3.1484375 C28.65625,3.1484375 28.608724,3.14908854 28.5605469,3.15039062 C28.5123698,3.15169271 28.4635417,3.15364583 28.4140625,3.15625 L28.4140625,2.53515625 C28.4869792,2.54296875 28.5481771,2.54817708 28.5976562,2.55078125 C28.6471354,2.55338542 28.7005208,2.5546875 28.7578125,2.5546875 C29.0208333,2.5546875 29.2369792,2.51302083 29.40625,2.4296875 C29.703125,2.28385417 29.8515625,2.0234375 29.8515625,1.6484375 C29.8515625,1.36979167 29.7526042,1.15494792 29.5546875,1.00390625 C29.3567708,0.852864583 29.1263021,0.77734375 28.8632812,0.77734375 C28.3945312,0.77734375 28.0703125,0.93359375 27.890625,1.24609375 C27.7916667,1.41796875 27.7356771,1.66276042 27.7226562,1.98046875 L27.0273437,1.98046875 C27.0273437,1.56380208 27.1106771,1.20963542 27.2773437,0.91796875 C27.5638021,0.397135417 28.0677083,0.13671875 28.7890625,0.13671875 C29.359375,0.13671875 29.8007812,0.263671875 30.1132812,0.517578125 C30.4257812,0.771484375 30.5820312,1.13932292 30.5820312,1.62109375 C30.5820312,1.96484375 30.4895833,2.24348958 30.3046875,2.45703125 C30.1901042,2.58984375 30.0416667,2.69401042 29.859375,2.76953125 C30.1536458,2.85026042 30.3834635,3.00585937 30.5488281,3.23632812 C30.7141927,3.46679687 30.796875,3.74869792 30.796875,4.08203125 C30.796875,4.61588542 30.6210937,5.05078125 30.2695312,5.38671875 C29.9179687,5.72265625 29.4192708,5.890625 28.7734375,5.890625 Z" id="Path"></path>
                </g>
            </g>
        </g>
    </g>
</svg>