<?xml version="1.0" encoding="UTF-8"?>
<svg width="1272px" height="334px" viewBox="0 0 1272 334" version="1.1" xmlns="http://www.w3.org/2000/svg" xmlns:xlink="http://www.w3.org/1999/xlink">
    <title>logo-light</title>
    <defs>
        <linearGradient x1="50%" y1="0%" x2="50%" y2="100%" id="linearGradient-1">
            <stop stop-color="#1C5A5B" offset="0%"></stop>
            <stop stop-color="#0C2031" offset="100%"></stop>
        </linearGradient>
    </defs>
    <g id="pre" stroke="none" stroke-width="1" fill="none" fill-rule="evenodd">
        <g id="pre-logo-light" transform="translate(-105, -133)">
            <g id="logo-light" transform="translate(105, 133.64)">
                <path d="M777.258423,40.36 C816.47064,40.36 848.258423,72.1477828 848.258423,111.36 C848.258423,150.572217 816.47064,182.36 777.258423,182.36 L732.575,182.36 L848.192034,300.256282 L848.086,300.36 L814.679,300.36 L698.76689,182.16239 C693.35318,176.641941 693.439708,167.778054 698.960157,162.364344 C701.577374,159.79773 705.096849,158.36 708.762547,158.36 L777.258423,158.36 C803.215806,158.36 824.258423,137.317383 824.258423,111.36 C824.258423,85.4026168 803.215806,64.36 777.258423,64.36 L684,64.36 L684,300.36 L660,300.36 L660,40.36 L777.258423,40.36 Z M472,300.36 L448,300.36 L448,40.36 L565,40.36 C604.212217,40.36 636,72.1477828 636,111.36 C636,150.572217 604.212217,182.36 565,182.36 L508,182.36 L508,158.36 L565,158.36 C590.957383,158.36 612,137.317383 612,111.36 C612,85.4026168 590.957383,64.36 565,64.36 L472,64.36 L472,300.36 Z M1060,40.36 L1060,64.36 L896,64.36 L896,158.36 L1044,158.36 L1044,182.36 L896,182.36 L896,276.36 L1060,276.36 L1060,300.36 L872,300.36 L872,40.36 L1060,40.36 Z M1272,40.36 L1272,64.36 L1108,64.36 L1108,158.36 L1256,158.36 L1256,182.36 L1108,182.36 L1108,276.36 L1272,276.36 L1272,300.36 L1084,300.36 L1084,40.36 L1272,40.36 Z" id="Combined-Shape" fill="url(#linearGradient-1)" fill-rule="nonzero"></path>
                <g id="solid">
                    <path d="M63.8929244,166.323 L128.206924,277.248 L193.222924,277.248 L161.306924,332.529 L95.9609244,332.675544 L0.00392443361,166.323 L63.8929244,166.323 Z M256.681924,278.185 L287.960924,332.246 L225.388924,332.386 L256.681924,278.185 Z M191.960924,166.323772 L223.862924,221.462211 L159.404791,221.462211 L127.466079,166.323772 L191.960924,166.323772 Z" id="Shape" fill="#265073"></path>
                    <path d="M287.975924,0.001 L383.721924,165.835 L327.456924,263.86 L287.936924,332.673 L256.588924,278.347 L321.525876,165.876356 L256.119924,55.675 L255.835924,55.675 L287.975924,0.001 Z M225.871168,110.333 L258.223964,166.323772 L225.871168,221.462211 L223.770924,221.462211 L191.960924,166.323772 L224.282924,110.333 L225.871168,110.333 Z" id="Shape" fill="#9AD0C2"></path>
                    <path d="M127.466079,277.248878 L193.161,277.354 L161.222924,332.675544 L127.466079,277.248878 Z M256.617,278.297 L287.958,332.673 L225.223924,332.673561 L256.617,278.297 Z M224.288,110.333 L191.960924,166.323772 L127.469,166.318 L159.404791,110.333561 L224.288,110.333 Z M104.164,0.009 L159.309924,0.248 L63.6596685,165.919416 L63.887,166.313 L0,166.308449 L60.432,61.509 L95.939,0.009 L104.164,0.009 Z M287.984,0.014 L255.846,55.675 L191.309924,55.675 L223.310924,0.248 L281.541,0 L287.976,0 L287.984,0.014 Z" id="Shape" fill="#2D9596"></path>
                </g>
            </g>
        </g>
    </g>
</svg>